<?xml version="1.0" encoding="utf-8"?>
<!-- Generator: Adobe Illustrator 24.3.0, SVG Export Plug-In . SVG Version: 6.00 Build 0)  -->
<svg version="1.1" id="Layer_1" xmlns="http://www.w3.org/2000/svg" xmlns:xlink="http://www.w3.org/1999/xlink" x="0px" y="0px"
	 viewBox="0 0 1000 1000" style="enable-background:new 0 0 1000 1000;" xml:space="preserve">
<style type="text/css">
	.st0{fill:none;}
	.st1{fill:#002F49;}
	.st2{fill:url(#SVGID_1_);}
	.st3{fill:url(#SVGID_2_);}
	.st4{fill:url(#SVGID_3_);}
	.st5{fill:url(#SVGID_4_);}
	.st6{fill:url(#SVGID_5_);}
	.st7{fill:url(#SVGID_6_);}
	.st8{fill:url(#SVGID_7_);}
	.st9{fill:url(#SVGID_8_);}
	.st10{fill:url(#SVGID_9_);}
	.st11{fill:url(#SVGID_10_);}
	.st12{fill:url(#SVGID_11_);}
	.st13{fill:url(#SVGID_12_);}
	.st14{fill:url(#SVGID_13_);}
	.st15{fill:url(#SVGID_14_);}
	.st16{fill:url(#SVGID_15_);}
	.st17{fill:url(#SVGID_16_);}
	.st18{fill:url(#SVGID_17_);}
	.st19{fill:url(#SVGID_18_);}
	.st20{fill:url(#SVGID_19_);}
	.st21{fill:url(#SVGID_20_);}
	.st22{fill:url(#SVGID_21_);}
	.st23{fill:url(#SVGID_22_);}
	.st24{fill:url(#SVGID_23_);}
	.st25{fill:url(#SVGID_24_);}
	.st26{fill:url(#SVGID_25_);}
	.st27{fill:url(#SVGID_26_);}
	.st28{fill:url(#SVGID_27_);}
	.st29{fill:url(#SVGID_28_);}
	.st30{fill:url(#SVGID_29_);}
	.st31{fill:url(#SVGID_30_);}
	.st32{fill:url(#SVGID_31_);}
	.st33{fill:url(#SVGID_32_);}
	.st34{fill:url(#SVGID_33_);}
	.st35{fill:url(#SVGID_34_);}
	.st36{fill:url(#SVGID_35_);}
	.st37{fill:url(#SVGID_36_);}
	.st38{fill:url(#SVGID_37_);}
	.st39{fill:url(#SVGID_38_);}
	.st40{fill:url(#SVGID_39_);}
	.st41{fill:url(#SVGID_40_);}
	.st42{fill:url(#SVGID_41_);}
	.st43{fill:url(#SVGID_42_);}
	.st44{fill:url(#SVGID_43_);}
	.st45{fill:url(#SVGID_44_);}
	.st46{fill:url(#SVGID_45_);}
	.st47{fill:url(#SVGID_46_);}
	.st48{fill:url(#SVGID_47_);}
	.st49{fill:url(#SVGID_48_);}
	.st50{fill:url(#SVGID_49_);}
	.st51{fill:url(#SVGID_50_);}
	.st52{fill:url(#SVGID_51_);}
	.st53{fill:url(#SVGID_52_);}
	.st54{fill:url(#SVGID_53_);}
	.st55{fill:url(#SVGID_54_);}
	.st56{fill:url(#SVGID_55_);}
	.st57{fill:url(#SVGID_56_);}
	.st58{fill:url(#SVGID_57_);}
	.st59{fill:url(#SVGID_58_);}
	.st60{fill:url(#SVGID_59_);}
	.st61{fill:url(#SVGID_60_);}
	.st62{fill:url(#SVGID_61_);}
	.st63{fill:url(#SVGID_62_);}
	.st64{fill:url(#SVGID_63_);}
	.st65{fill:url(#SVGID_64_);}
	.st66{fill:url(#SVGID_65_);}
	.st67{fill:url(#SVGID_66_);}
	.st68{fill:url(#SVGID_67_);}
	.st69{fill:url(#SVGID_68_);}
	.st70{fill:url(#SVGID_69_);}
	.st71{fill:url(#SVGID_70_);}
	.st72{fill:url(#SVGID_71_);}
	.st73{fill:url(#SVGID_72_);}
	.st74{fill:url(#SVGID_73_);}
	.st75{fill:url(#SVGID_74_);}
	.st76{fill:url(#SVGID_75_);}
	.st77{fill:url(#SVGID_76_);}
	.st78{fill:url(#SVGID_77_);}
	.st79{fill:url(#SVGID_78_);}
	.st80{fill:url(#SVGID_79_);}
	.st81{fill:url(#SVGID_80_);}
	.st82{fill:url(#SVGID_81_);}
	.st83{fill:url(#SVGID_82_);}
	.st84{fill:url(#SVGID_83_);}
</style>
<g>
	<g>
		<path class="st0" d="M370.4,524.7c-26.8,36.4-35.2,68.1-23.5,84.5c9.5,13.3,32.9,17.4,64.6,11.2c-7.5-22.2-11.1-50.7-12.6-66.8
			C388.8,544,377.6,532.4,370.4,524.7z"/>
		<path class="st0" d="M483.7,406c-8.7-4.4-17.3-8.3-25.8-11.8c-3.1,10.1-5.6,22.2-7.4,33.3C461.5,419.7,472.6,412.5,483.7,406z"/>
		<path class="st0" d="M516.2,594.1c8.9,4.5,17.6,8.5,26.1,11.9c3.5-9.9,6-22.4,7.8-33.9C538.9,580.1,527.5,587.4,516.2,594.1z"/>
		<path class="st0" d="M601.5,553.6c-1.5,16.1-5.1,44.6-12.6,66.8c31.5,6.1,54.8,2,64.3-11.3c11.7-16.3,3.3-47.9-23.4-84.3
			C622.5,532.6,611.5,544.1,601.5,553.6z"/>
		<path class="st0" d="M549.9,427.8c-1.9-11.3-4.3-23.5-7.5-33.7c-8.6,3.5-17.3,7.5-26,11.9C527.5,412.6,538.8,419.9,549.9,427.8z"
			/>
		<path class="st0" d="M537,620.7c-12.1-4.9-24.5-10.8-37-17.5c-12.4,6.6-24.7,12.4-36.7,17.3l0.5,1.5l-16.2,5.8
			c14,38.1,33.5,60.2,52.4,60.2c18.8,0,38.4-22.2,52.4-60.3l-15.9-5.7L537,620.7z"/>
		<path class="st0" d="M450.3,572.4c1.8,11.4,4.3,23.8,7.7,33.5c8.3-3.4,16.9-7.3,25.8-11.8C472.6,587.5,461.4,580.2,450.3,572.4z"
			/>
		<path class="st0" d="M552.7,550.7c0.6-6.1,0.9-10,0.9-10.2l0.6-10l7.4-6.6c3.1-2.8,6.6-6.1,10.2-9.6c0.1-4.7,0.2-9.5,0.2-14.3
			c0-4.6-0.1-9.2-0.2-13.7c-5.4-4.9-9.3-8.3-9.4-8.4l-7.5-6.5l-0.8-9.9c0-0.1-0.4-4.9-1.3-12.2c-3.6-2.7-7.3-5.4-11.1-8.1
			c-13.8-9.9-27.9-18.8-41.9-26.6c-14,7.9-28,16.8-41.9,26.6c-3.7,2.6-7.2,5.2-10.7,7.9c-0.9,7.4-1.3,12.3-1.3,12.4l-0.8,9.9
			l-7.5,6.5c-0.1,0.1-4.1,3.6-9.7,8.7c-0.1,4.4-0.2,8.9-0.2,13.4c0,4.7,0.1,9.4,0.2,14c3.7,3.6,7.3,7.1,10.5,9.9l7.4,6.6l0.6,10
			c0,0.1,0.3,4.2,0.9,10.4c3.4,2.6,6.9,5.2,10.5,7.7c14.2,10.1,28.2,19,41.9,26.7c13.6-7.7,27.6-16.6,41.9-26.7
			C545.6,556.1,549.2,553.4,552.7,550.7z"/>
		<path class="st0" d="M462.8,379.3c12.2,5,24.7,10.8,37.2,17.5c12.6-6.8,25.2-12.7,37.5-17.7l-0.8-2.3l15.5-5.1
			c-14-37.9-33.5-59.8-52.2-59.8c-18.8,0-38.2,21.9-52.2,59.7l15.8,5.2L462.8,379.3z"/>
		<path class="st0" d="M398.5,447.6c1.8-16.2,5.7-44.9,12.9-67.9c-9.8-2-18.8-2.9-26.9-2.9c-17.9,0-31,4.8-37.7,14
			c-11.6,16.3-3.3,47.8,23.3,84.1C379.6,464.9,390.9,454.4,398.5,447.6z"/>
		<path class="st0" d="M630,474.7c26.5-36.2,34.8-67.6,23.1-83.9c-6.6-9.3-19.8-14-37.7-14c-8,0-16.9,1-26.6,2.9
			c7.2,23,11.1,51.8,12.9,68C609.3,454.4,620.5,464.7,630,474.7z"/>
		<g>
			<path class="st1" d="M428.1,486.6c-4.1,3.8-9.1,8.4-14,13.2c4.4,4.5,9.3,9.5,14,14.2c-0.1-4.6-0.2-9.3-0.2-14
				C427.9,495.5,428,491,428.1,486.6z"/>
			<path class="st1" d="M500,311.9c18.8,0,38.2,22,52.2,59.8l14.8-4.8c-1-2.9-2.1-5.7-3.2-8.4c-16.4-40.2-39-62.3-63.8-62.3
				c-24.8,0-47.4,22.1-63.8,62.3c-1.1,2.7-2.2,5.5-3.2,8.3l14.8,4.8C461.8,333.8,481.2,311.9,500,311.9z"/>
			<path class="st1" d="M571.9,486.3c0.1,4.5,0.2,9.1,0.2,13.7c0,4.9-0.1,9.6-0.2,14.3c4.9-4.8,9.9-9.9,14.4-14.5
				C581.2,494.9,576.1,490.1,571.9,486.3z"/>
			<path class="st1" d="M500,688.1c-18.8,0-38.4-22.1-52.4-60.2l-14.6,5.3c1,2.8,2.1,5.6,3.2,8.4c16.4,40.2,39,62.3,63.8,62.3
				c24.8,0,47.4-22.1,63.8-62.3c1.1-2.8,2.2-5.6,3.2-8.5l-14.6-5.3C538.4,665.9,518.8,688.1,500,688.1z"/>
			<path class="st1" d="M640.5,513.3l-2.8,3c-0.3,0.4-3.4,3.7-8,8.6c26.7,36.3,35,67.9,23.4,84.3c-9.5,13.3-32.8,17.4-64.3,11.3
				c-0.3,0.9-0.6,1.7-0.9,2.6l-4.4,12.3c11.6,2.4,22.3,3.6,31.9,3.6c23.3,0,40.7-7,50.4-20.6c14.4-20.2,9.5-51.4-13.7-88.1
				C648.7,524.6,644.8,519,640.5,513.3z"/>
			<path class="st1" d="M549.9,427.8c-11.1-7.9-22.3-15.1-33.6-21.8c8.8-4.4,17.5-8.4,26-11.9c-0.2-0.5-0.3-1-0.5-1.6l-4.4-13.4
				c-12.3,5-24.9,10.9-37.5,17.7c-12.5-6.7-25-12.6-37.2-17.5l-4.3,13.3c-0.2,0.5-0.4,1.1-0.5,1.7c8.5,3.5,17.1,7.4,25.8,11.8
				c-11.1,6.6-22.2,13.8-33.2,21.5c-1.3,8.1-2.4,15.7-3.1,21.7c3.5-2.6,7.1-5.3,10.7-7.9c13.8-9.9,27.9-18.8,41.9-26.6
				c14,7.9,28,16.8,41.9,26.6c3.8,2.7,7.5,5.4,11.1,8.1C552.2,443.5,551.2,435.9,549.9,427.8z"/>
			<path class="st1" d="M359.6,486.8l2.2-2.6c2.5-3,5.3-6.1,8.3-9.3c-26.6-36.3-34.9-67.8-23.3-84.1c6.6-9.3,19.8-14,37.7-14
				c8.1,0,17.1,1,26.9,2.9c0.2-0.8,0.5-1.6,0.7-2.3l4.1-12.7c-39.4-8.2-68.4-2.3-82.2,17c-14.4,20.2-9.5,51.4,13.7,88.1
				C351.3,475.4,355.3,481.1,359.6,486.8z"/>
			<path class="st1" d="M552.7,550.7c-3.6,2.7-7.2,5.4-10.9,8c-14.2,10.1-28.2,19-41.9,26.7c-13.6-7.7-27.6-16.6-41.9-26.7
				c-3.6-2.6-7.1-5.2-10.5-7.7c0.6,5.7,1.5,13.3,2.7,21.4c11.1,7.8,22.3,15.1,33.5,21.7c-8.8,4.5-17.4,8.4-25.8,11.8
				c0.1,0.2,0.1,0.4,0.2,0.6l5,14.1c12.1-4.9,24.3-10.7,36.7-17.3c12.5,6.7,24.8,12.5,37,17.5l5.1-14.2c0.1-0.2,0.1-0.3,0.2-0.5
				c-8.4-3.4-17.1-7.4-26.1-11.9c11.3-6.7,22.7-14,33.8-22C551.3,564,552.2,556.4,552.7,550.7z"/>
			<path class="st1" d="M588.9,379.6c9.7-1.9,18.6-2.9,26.6-2.9c17.9,0,31,4.8,37.7,14c11.6,16.3,3.3,47.7-23.1,83.9
				c3.1,3.2,6,6.4,8.5,9.5l2,2.4c4.2-5.6,8.2-11.3,11.7-16.8c23.2-36.6,28-67.9,13.7-88.1c-13.7-19.2-42.7-25.2-81.9-17.1l4.2,12.7
				C588.5,378.1,588.7,378.9,588.9,379.6z"/>
			<path class="st1" d="M411.5,620.4c-31.7,6.2-55.1,2.1-64.6-11.2c-11.7-16.4-3.3-48.1,23.5-84.5c-4.5-4.7-7.5-8-7.8-8.4l-2.9-3.2
				c-4.3,5.7-8.3,11.4-11.9,17.1c-23.2,36.6-28,67.9-13.7,88.1c9.7,13.6,27.1,20.6,50.4,20.6c9.8,0,20.5-1.2,32.2-3.7l-4.4-12.2
				C412,622.1,411.7,621.3,411.5,620.4z"/>
		</g>
		<g>
			<linearGradient id="SVGID_1_" gradientUnits="userSpaceOnUse" x1="459.5935" y1="656.944" x2="617.9207" y2="424.4172">
				<stop  offset="0" style="stop-color:#EF4136"/>
				<stop  offset="1" style="stop-color:#FBB040"/>
			</linearGradient>
			<path class="st2" d="M629.8,500.1l-4.1-4.9l-0.1-0.2c-1.8-2.2-3.9-4.5-6-6.8c-2.4-2.6-5-5.2-7.6-7.9
				c-10.3-10.3-21.4-20.2-26.2-24.4c0,0,0,0,0,0c0-0.2,0-0.4-0.1-0.6c-0.7-6.5-2.2-20.6-4.9-36.2c-2.1-11.8-4.8-24.4-8.3-35.3
				c-0.1-0.3-0.2-0.6-0.3-0.9c0,0,0,0,0,0l-14.6,4.8l-0.1,0l-0.1,0c0.1,0.3,0.2,0.5,0.2,0.8c1,3.1,1.9,6.3,2.8,9.7c0,0,0,0.1,0,0.1
				c3.7,14.6,6.3,31,8,43.4c1.4,11,2.1,18.7,2.1,18.8l0.3,3.2l0,0l0.6,0.5l1.8,1.6c0.1,0.1,6.3,5.5,14.2,12.8
				c6.9,6.4,15.1,14.3,21.7,21.5c-3.9,4.2-9.8,10.4-16.2,16.9c-1.8,1.9-3.7,3.7-5.5,5.6c-5.1,5.1-10.3,10.1-14.8,14.1l-1.9,1.7
				l-0.5,0.5l-0.2,3.2c0,0.2-0.5,7-1.6,16.8c-0.5,4.7-1.2,10-2.1,15.7c-1.8,11.8-4.4,24.8-7.9,35.5c-0.2,0.7-0.5,1.4-0.7,2.1
				c-0.1,0.1-0.1,0.3-0.2,0.4l0.1,0l14.6,5.3c0-0.1,0-0.1,0.1-0.2c0,0,0,0,0,0c0.1-0.3,0.2-0.5,0.3-0.8c5.1-14.8,8.4-33.3,10.4-48.2
				c1.3-9.8,2.1-18,2.4-22.3c0.1-0.1,0.2-0.2,0.3-0.3c6.8-6.3,14.6-14,21.4-21.1c4.8-4.9,9.1-9.5,12.4-12.9c3-3.1,5-5.4,5.7-6.1
				c0.1-0.1,0.2-0.2,0.2-0.3l4.7-5.1L629.8,500.1z"/>
			<linearGradient id="SVGID_2_" gradientUnits="userSpaceOnUse" x1="368.5888" y1="594.9789" x2="526.916" y2="362.4522">
				<stop  offset="0" style="stop-color:#EF4136"/>
				<stop  offset="1" style="stop-color:#FBB040"/>
			</linearGradient>
			<path class="st3" d="M401.8,488.6c3.7-3.7,7.5-7.2,10.9-10.4c3.1-2.9,6-5.5,8.3-7.6c3.4-3,5.6-4.9,5.6-5l2.4-2.1l0.3-3.2
				c0-0.2,0.7-7.8,2.1-18.7c2-15.2,5.5-36.8,10.8-53.4c0.1-0.2,0.1-0.5,0.2-0.7l-14.7-4.8l0,0l-0.2-0.1c-0.1,0.3-0.2,0.6-0.3,0.9
				c-8.3,25.9-12.2,61.5-13.3,72.3c-6,5.3-21.8,19.5-33.6,32.2c-2.2,2.4-4.3,4.7-6.2,6.9l-4.2,5l-0.3,0.3l0,0.1l4.6,5
				c0.3,0.3,2.6,2.8,6,6.5c0.7,0.7,1.4,1.4,2.1,2.2c0.8,0.9,1.7,1.8,2.6,2.8c8.2,8.6,19.6,20.4,29.2,29.1c0,0,0.1,0.1,0.1,0.1
				c0.1,1.7,0.3,4,0.6,6.7c1.4,14.8,5,43.2,12.2,63.9c0.1,0.3,0.2,0.7,0.3,1l0.2-0.1l14.6-5.2c0,0,0,0,0-0.1c0-0.1-0.1-0.2-0.1-0.3
				c-5.5-15.6-8.8-36.9-10.6-51.9c-0.1-0.6-0.1-1.1-0.2-1.6c-1.1-9.7-1.6-16.4-1.6-16.6l-0.2-3.2l-0.3-0.3l-2.1-1.9
				c-4.4-4-9.5-8.9-14.6-13.9c-3.4-3.4-6.8-6.9-10-10.2c-4.7-4.8-8.8-9.2-11.9-12.4c0,0-0.1-0.1-0.1-0.1
				C394.2,496.2,397.9,492.3,401.8,488.6z"/>
		</g>
		<linearGradient id="SVGID_3_" gradientUnits="userSpaceOnUse" x1="384.6962" y1="605.9465" x2="543.0234" y2="373.4197">
			<stop  offset="0" style="stop-color:#EF4136"/>
			<stop  offset="1" style="stop-color:#FBB040"/>
		</linearGradient>
		<rect x="462.5" y="451.7" class="st4" width="32.4" height="32.4"/>
		<linearGradient id="SVGID_4_" gradientUnits="userSpaceOnUse" x1="430.1299" y1="636.8821" x2="588.457" y2="404.3554">
			<stop  offset="0" style="stop-color:#EF4136"/>
			<stop  offset="1" style="stop-color:#FBB040"/>
		</linearGradient>
		<rect x="480.4" y="513.2" class="st5" width="40.4" height="40.4"/>
		<linearGradient id="SVGID_5_" gradientUnits="userSpaceOnUse" x1="421.3889" y1="630.9305" x2="579.7161" y2="398.4037">
			<stop  offset="0" style="stop-color:#EF4136"/>
			<stop  offset="1" style="stop-color:#FBB040"/>
		</linearGradient>
		<rect x="511.4" y="470.6" class="st6" width="22.8" height="22.8"/>
		<linearGradient id="SVGID_6_" gradientUnits="userSpaceOnUse" x1="391.3283" y1="610.4622" x2="549.6555" y2="377.9355">
			<stop  offset="0" style="stop-color:#EF4136"/>
			<stop  offset="1" style="stop-color:#FBB040"/>
		</linearGradient>
		<rect x="452" y="502.5" class="st7" width="15.3" height="15.3"/>
		<linearGradient id="SVGID_7_" gradientUnits="userSpaceOnUse" x1="454.9254" y1="653.7654" x2="613.2526" y2="421.2387">
			<stop  offset="0" style="stop-color:#EF4136"/>
			<stop  offset="1" style="stop-color:#FBB040"/>
		</linearGradient>
		<rect x="542.2" y="506.7" class="st8" width="15.3" height="15.3"/>
	</g>
</g>
</svg>
