<?xml version="1.0" encoding="utf-8"?>
<!-- Generator: Adobe Illustrator 24.3.0, SVG Export Plug-In . SVG Version: 6.00 Build 0)  -->
<svg version="1.1" id="Layer_1" xmlns="http://www.w3.org/2000/svg" xmlns:xlink="http://www.w3.org/1999/xlink" x="0px" y="0px"
	 viewBox="0 0 1000 1000" style="enable-background:new 0 0 1000 1000;" xml:space="preserve">
<style type="text/css">
	.st0{fill:none;}
	.st1{fill:#002F49;}
	.st2{fill:url(#SVGID_1_);}
	.st3{fill:url(#SVGID_2_);}
	.st4{fill:url(#SVGID_3_);}
	.st5{fill:url(#SVGID_4_);}
	.st6{fill:url(#SVGID_5_);}
	.st7{fill:url(#SVGID_6_);}
	.st8{fill:url(#SVGID_7_);}
	.st9{fill:url(#SVGID_8_);}
	.st10{fill:url(#SVGID_9_);}
	.st11{fill:url(#SVGID_10_);}
	.st12{fill:url(#SVGID_11_);}
	.st13{fill:url(#SVGID_12_);}
	.st14{fill:url(#SVGID_13_);}
	.st15{fill:url(#SVGID_14_);}
	.st16{fill:url(#SVGID_15_);}
	.st17{fill:url(#SVGID_16_);}
	.st18{fill:url(#SVGID_17_);}
	.st19{fill:url(#SVGID_18_);}
	.st20{fill:url(#SVGID_19_);}
	.st21{fill:url(#SVGID_20_);}
	.st22{fill:url(#SVGID_21_);}
	.st23{fill:url(#SVGID_22_);}
	.st24{fill:url(#SVGID_23_);}
	.st25{fill:url(#SVGID_24_);}
	.st26{fill:url(#SVGID_25_);}
	.st27{fill:url(#SVGID_26_);}
	.st28{fill:url(#SVGID_27_);}
	.st29{fill:url(#SVGID_28_);}
	.st30{fill:url(#SVGID_29_);}
	.st31{fill:url(#SVGID_30_);}
	.st32{fill:url(#SVGID_31_);}
	.st33{fill:url(#SVGID_32_);}
	.st34{fill:url(#SVGID_33_);}
	.st35{fill:url(#SVGID_34_);}
	.st36{fill:url(#SVGID_35_);}
	.st37{fill:url(#SVGID_36_);}
	.st38{fill:url(#SVGID_37_);}
	.st39{fill:url(#SVGID_38_);}
	.st40{fill:url(#SVGID_39_);}
	.st41{fill:url(#SVGID_40_);}
	.st42{fill:url(#SVGID_41_);}
	.st43{fill:url(#SVGID_42_);}
	.st44{fill:url(#SVGID_43_);}
	.st45{fill:url(#SVGID_44_);}
	.st46{fill:url(#SVGID_45_);}
	.st47{fill:url(#SVGID_46_);}
	.st48{fill:url(#SVGID_47_);}
	.st49{fill:url(#SVGID_48_);}
	.st50{fill:url(#SVGID_49_);}
	.st51{fill:url(#SVGID_50_);}
	.st52{fill:url(#SVGID_51_);}
	.st53{fill:url(#SVGID_52_);}
	.st54{fill:url(#SVGID_53_);}
	.st55{fill:url(#SVGID_54_);}
	.st56{fill:url(#SVGID_55_);}
	.st57{fill:url(#SVGID_56_);}
	.st58{fill:url(#SVGID_57_);}
	.st59{fill:url(#SVGID_58_);}
	.st60{fill:url(#SVGID_59_);}
	.st61{fill:url(#SVGID_60_);}
	.st62{fill:url(#SVGID_61_);}
	.st63{fill:url(#SVGID_62_);}
	.st64{fill:url(#SVGID_63_);}
	.st65{fill:url(#SVGID_64_);}
	.st66{fill:url(#SVGID_65_);}
	.st67{fill:url(#SVGID_66_);}
	.st68{fill:url(#SVGID_67_);}
	.st69{fill:url(#SVGID_68_);}
	.st70{fill:url(#SVGID_69_);}
	.st71{fill:url(#SVGID_70_);}
	.st72{fill:url(#SVGID_71_);}
	.st73{fill:url(#SVGID_72_);}
	.st74{fill:url(#SVGID_73_);}
	.st75{fill:url(#SVGID_74_);}
	.st76{fill:url(#SVGID_75_);}
	.st77{fill:url(#SVGID_76_);}
	.st78{fill:url(#SVGID_77_);}
	.st79{fill:url(#SVGID_78_);}
	.st80{fill:url(#SVGID_79_);}
	.st81{fill:url(#SVGID_80_);}
	.st82{fill:url(#SVGID_81_);}
	.st83{fill:url(#SVGID_82_);}
	.st84{fill:url(#SVGID_83_);}
</style>
<g>
	<g>
		<path class="st0" d="M261.2,510.9c-11.8,16-15.5,30-10.4,37.2c4.2,5.9,14.5,7.7,28.4,4.9c-3.3-9.8-4.9-22.3-5.5-29.4
			C269.3,519.4,264.4,514.3,261.2,510.9z"/>
		<path class="st0" d="M311.1,458.6c-3.8-1.9-7.6-3.7-11.3-5.2c-1.4,4.4-2.5,9.8-3.3,14.7C301.3,464.7,306.2,461.5,311.1,458.6z"/>
		<path class="st0" d="M325.4,541.4c3.9,2,7.8,3.7,11.5,5.2c1.5-4.3,2.6-9.9,3.4-14.9C335.3,535.2,330.3,538.5,325.4,541.4z"/>
		<path class="st0" d="M362.9,523.6c-0.7,7.1-2.3,19.6-5.6,29.4c13.9,2.7,24.1,0.9,28.3-5c5.1-7.2,1.4-21.1-10.3-37.1
			C372.1,514.3,367.3,519.4,362.9,523.6z"/>
		<path class="st0" d="M340.2,468.2c-0.8-5-1.9-10.3-3.3-14.8c-3.8,1.5-7.6,3.3-11.5,5.2C330.4,461.6,335.3,464.8,340.2,468.2z"/>
		<path class="st0" d="M334.5,553.1c-5.3-2.2-10.8-4.7-16.3-7.7c-5.4,2.9-10.9,5.5-16.2,7.6l0.2,0.7l-7.1,2.6
			c6.2,16.8,14.8,26.5,23,26.5c8.3,0,16.9-9.7,23.1-26.5l-7-2.5L334.5,553.1z"/>
		<path class="st0" d="M296.4,531.8c0.8,5,1.9,10.5,3.4,14.7c3.7-1.5,7.5-3.2,11.3-5.2C306.2,538.5,301.2,535.3,296.4,531.8z"/>
		<path class="st0" d="M341.4,522.3c0.3-2.7,0.4-4.4,0.4-4.5l0.3-4.4l3.3-2.9c1.4-1.2,2.9-2.7,4.5-4.2c0.1-2.1,0.1-4.2,0.1-6.3
			c0-2,0-4-0.1-6c-2.4-2.2-4.1-3.6-4.1-3.7l-3.3-2.9l-0.4-4.3c0-0.1-0.2-2.2-0.6-5.4c-1.6-1.2-3.2-2.4-4.9-3.6
			c-6.1-4.3-12.3-8.3-18.4-11.7c-6.2,3.5-12.3,7.4-18.4,11.7c-1.6,1.1-3.2,2.3-4.7,3.5c-0.4,3.3-0.6,5.4-0.6,5.5l-0.4,4.3l-3.3,2.9
			c0,0-1.8,1.6-4.3,3.8c-0.1,1.9-0.1,3.9-0.1,5.9c0,2.1,0,4.1,0.1,6.2c1.6,1.6,3.2,3.1,4.6,4.4l3.3,2.9l0.3,4.4
			c0,0.1,0.1,1.8,0.4,4.6c1.5,1.1,3,2.3,4.6,3.4c6.3,4.5,12.4,8.4,18.4,11.8c6-3.4,12.2-7.3,18.4-11.8
			C338.3,524.7,339.9,523.5,341.4,522.3z"/>
		<path class="st0" d="M301.9,446.9c5.4,2.2,10.9,4.8,16.4,7.7c5.6-3,11.1-5.6,16.5-7.8l-0.3-1l6.8-2.2c-6.1-16.7-14.7-26.3-23-26.3
			c-8.3,0-16.8,9.6-23,26.3l7,2.3L301.9,446.9z"/>
		<path class="st0" d="M273.6,476.9c0.8-7.1,2.5-19.7,5.7-29.9c-4.3-0.9-8.3-1.3-11.8-1.3c-7.9,0-13.7,2.1-16.6,6.2
			c-5.1,7.2-1.5,21.1,10.2,37C265.3,484.5,270.2,479.9,273.6,476.9z"/>
		<path class="st0" d="M375.4,488.9c11.7-15.9,15.3-29.8,10.2-36.9c-2.9-4.1-8.7-6.2-16.6-6.2c-3.5,0-7.4,0.4-11.7,1.3
			c3.2,10.1,4.9,22.8,5.7,29.9C366.3,479.9,371.3,484.5,375.4,488.9z"/>
		<g>
			<path class="st1" d="M286.6,494.1c-1.8,1.7-4,3.7-6.2,5.8c1.9,2,4.1,4.2,6.2,6.2c-0.1-2-0.1-4.1-0.1-6.2
				C286.5,498,286.5,496,286.6,494.1z"/>
			<path class="st1" d="M318.2,417.2c8.3,0,16.8,9.7,23,26.3l6.5-2.1c-0.5-1.3-0.9-2.5-1.4-3.7c-7.2-17.7-17.2-27.4-28.1-27.4
				s-20.9,9.7-28.1,27.4c-0.5,1.2-1,2.4-1.4,3.7l6.5,2.1C301.4,426.9,310,417.2,318.2,417.2z"/>
			<path class="st1" d="M349.9,494c0.1,2,0.1,4,0.1,6c0,2.1,0,4.2-0.1,6.3c2.1-2.1,4.4-4.4,6.3-6.4C354,497.8,351.7,495.7,349.9,494
				z"/>
			<path class="st1" d="M318.2,582.8c-8.3,0-16.9-9.7-23-26.5l-6.4,2.3c0.5,1.3,0.9,2.5,1.4,3.7c7.2,17.7,17.2,27.4,28.1,27.4
				s20.9-9.7,28.1-27.4c0.5-1.2,1-2.5,1.4-3.7l-6.4-2.3C335.1,573,326.5,582.8,318.2,582.8z"/>
			<path class="st1" d="M380.1,505.9l-1.2,1.3c-0.2,0.2-1.5,1.6-3.5,3.8c11.7,16,15.4,29.9,10.3,37.1c-4.2,5.8-14.4,7.6-28.3,5
				c-0.1,0.4-0.3,0.8-0.4,1.1l-1.9,5.4c5.1,1.1,9.8,1.6,14,1.6c10.3,0,17.9-3.1,22.2-9.1c6.3-8.9,4.2-22.6-6-38.8
				C383.7,510.8,381.9,508.4,380.1,505.9z"/>
			<path class="st1" d="M340.2,468.2c-4.9-3.5-9.8-6.7-14.8-9.6c3.9-1.9,7.7-3.7,11.5-5.2c-0.1-0.2-0.1-0.5-0.2-0.7l-1.9-5.9
				c-5.4,2.2-10.9,4.8-16.5,7.8c-5.5-3-11-5.5-16.4-7.7l-1.9,5.8c-0.1,0.2-0.2,0.5-0.2,0.7c3.7,1.5,7.5,3.3,11.3,5.2
				c-4.9,2.9-9.8,6.1-14.6,9.5c-0.6,3.6-1,6.9-1.4,9.5c1.5-1.2,3.1-2.3,4.7-3.5c6.1-4.3,12.3-8.3,18.4-11.7
				c6.2,3.5,12.3,7.4,18.4,11.7c1.7,1.2,3.3,2.4,4.9,3.6C341.2,475.1,340.8,471.8,340.2,468.2z"/>
			<path class="st1" d="M256.5,494.2l1-1.2c1.1-1.3,2.3-2.7,3.7-4.1c-11.7-16-15.4-29.8-10.2-37c2.9-4.1,8.7-6.2,16.6-6.2
				c3.5,0,7.5,0.4,11.8,1.3c0.1-0.3,0.2-0.7,0.3-1l1.8-5.6c-17.3-3.6-30.1-1-36.2,7.5c-6.3,8.9-4.2,22.6,6,38.8
				C252.8,489.2,254.6,491.7,256.5,494.2z"/>
			<path class="st1" d="M341.4,522.3c-1.6,1.2-3.1,2.4-4.8,3.5c-6.3,4.5-12.4,8.4-18.4,11.8c-6-3.4-12.2-7.3-18.4-11.8
				c-1.6-1.1-3.1-2.3-4.6-3.4c0.3,2.5,0.6,5.9,1.2,9.4c4.9,3.4,9.8,6.6,14.7,9.6c-3.9,2-7.7,3.7-11.3,5.2c0,0.1,0.1,0.2,0.1,0.3
				l2.2,6.2c5.3-2.2,10.7-4.7,16.2-7.6c5.5,2.9,10.9,5.5,16.3,7.7l2.2-6.2c0-0.1,0-0.1,0.1-0.2c-3.7-1.5-7.5-3.3-11.5-5.2
				c5-2.9,10-6.2,14.9-9.7C340.8,528.2,341.2,524.8,341.4,522.3z"/>
			<path class="st1" d="M357.4,447c4.3-0.8,8.2-1.3,11.7-1.3c7.9,0,13.7,2.1,16.6,6.2c5.1,7.2,1.5,21-10.2,36.9
				c1.4,1.4,2.6,2.8,3.7,4.2l0.9,1.1c1.9-2.5,3.6-5,5.1-7.4c10.2-16.1,12.3-29.9,6-38.8c-6-8.5-18.8-11.1-36-7.5l1.8,5.6
				C357.1,446.4,357.2,446.7,357.4,447z"/>
			<path class="st1" d="M279.3,553c-13.9,2.7-24.2,0.9-28.4-4.9c-5.1-7.2-1.4-21.1,10.4-37.2c-2-2.1-3.3-3.5-3.4-3.7l-1.3-1.4
				c-1.9,2.5-3.6,5-5.2,7.5c-10.2,16.1-12.3,29.9-6,38.8c4.3,6,11.9,9.1,22.2,9.1c4.3,0,9-0.5,14.2-1.6l-1.9-5.4
				C279.5,553.7,279.4,553.3,279.3,553z"/>
		</g>
		<g>
			<linearGradient id="SVGID_1_" gradientUnits="userSpaceOnUse" x1="300.4537" y1="569.0511" x2="370.1134" y2="466.7456">
				<stop  offset="0" style="stop-color:#EF4136"/>
				<stop  offset="1" style="stop-color:#FBB040"/>
			</linearGradient>
			<path class="st2" d="M375.4,500l-1.8-2.2l-0.1-0.1c-0.8-1-1.7-2-2.7-3c-1.1-1.1-2.2-2.3-3.3-3.5c-4.5-4.5-9.4-8.9-11.5-10.8
				c0,0,0,0,0,0c0-0.1,0-0.2,0-0.3c-0.3-2.9-1-9.1-2.2-15.9c-0.9-5.2-2.1-10.7-3.6-15.6c0-0.1-0.1-0.3-0.1-0.4c0,0,0,0,0,0l-6.4,2.1
				l-0.1,0l-0.1,0c0,0.1,0.1,0.2,0.1,0.3c0.4,1.4,0.8,2.8,1.2,4.3c0,0,0,0,0,0.1c1.6,6.4,2.8,13.7,3.5,19.1c0.6,4.8,0.9,8.2,0.9,8.3
				l0.1,1.4l0,0l0.2,0.2l0.8,0.7c0.1,0,2.8,2.4,6.2,5.6c3,2.8,6.7,6.3,9.5,9.4c-1.7,1.8-4.3,4.6-7.1,7.4c-0.8,0.8-1.6,1.6-2.4,2.5
				c-2.3,2.3-4.5,4.4-6.5,6.2l-0.8,0.7l-0.2,0.2l-0.1,1.4c0,0.1-0.2,3.1-0.7,7.4c-0.2,2.1-0.5,4.4-0.9,6.9
				c-0.8,5.2-1.9,10.9-3.5,15.6c-0.1,0.3-0.2,0.6-0.3,0.9c0,0.1,0,0.1-0.1,0.2l0.1,0l6.4,2.3c0,0,0-0.1,0-0.1c0,0,0,0,0,0
				c0-0.1,0.1-0.2,0.1-0.4c2.3-6.5,3.7-14.7,4.6-21.2c0.6-4.3,0.9-7.9,1.1-9.8c0,0,0.1-0.1,0.2-0.1c3-2.8,6.4-6.2,9.4-9.3
				c2.1-2.2,4-4.2,5.4-5.7c1.3-1.4,2.2-2.4,2.5-2.7c0-0.1,0.1-0.1,0.1-0.1L375.4,500L375.4,500z"/>
			<linearGradient id="SVGID_2_" gradientUnits="userSpaceOnUse" x1="260.414" y1="541.7882" x2="330.0738" y2="439.4826">
				<stop  offset="0" style="stop-color:#EF4136"/>
				<stop  offset="1" style="stop-color:#FBB040"/>
			</linearGradient>
			<path class="st3" d="M275,495c1.6-1.6,3.3-3.2,4.8-4.6c1.4-1.3,2.6-2.4,3.7-3.3c1.5-1.3,2.4-2.2,2.5-2.2l1.1-0.9l0.1-1.4
				c0-0.1,0.3-3.4,0.9-8.2c0.9-6.7,2.4-16.2,4.8-23.5c0-0.1,0.1-0.2,0.1-0.3l-6.5-2.1l0,0l-0.1,0c0,0.1-0.1,0.3-0.1,0.4
				c-3.6,11.4-5.4,27.1-5.8,31.8c-2.6,2.3-9.6,8.6-14.8,14.2c-1,1-1.9,2.1-2.7,3l-1.8,2.2l-0.1,0.1l0,0l2,2.2
				c0.1,0.1,1.1,1.2,2.7,2.9c0.3,0.3,0.6,0.6,0.9,1c0.4,0.4,0.8,0.8,1.2,1.2c3.6,3.8,8.6,9,12.8,12.8c0,0,0,0,0,0
				c0.1,0.7,0.1,1.7,0.3,2.9c0.6,6.5,2.2,19,5.4,28.1c0.1,0.1,0.1,0.3,0.2,0.4l0.1,0l6.4-2.3c0,0,0,0,0,0c0,0,0-0.1,0-0.1
				c-2.4-6.9-3.9-16.2-4.7-22.8c0-0.2-0.1-0.5-0.1-0.7c-0.5-4.3-0.7-7.2-0.7-7.3l-0.1-1.4l-0.1-0.1l-0.9-0.8
				c-1.9-1.7-4.2-3.9-6.4-6.1c-1.5-1.5-3-3-4.4-4.5c-2.1-2.1-3.9-4.1-5.2-5.5c0,0,0,0,0,0C271.7,498.3,273.3,496.6,275,495z"/>
		</g>
		<linearGradient id="SVGID_3_" gradientUnits="userSpaceOnUse" x1="267.5009" y1="546.6136" x2="337.1606" y2="444.308">
			<stop  offset="0" style="stop-color:#EF4136"/>
			<stop  offset="1" style="stop-color:#FBB040"/>
		</linearGradient>
		<rect x="301.7" y="478.7" class="st4" width="14.3" height="14.3"/>
		<linearGradient id="SVGID_4_" gradientUnits="userSpaceOnUse" x1="287.4904" y1="560.2245" x2="357.1502" y2="457.9189">
			<stop  offset="0" style="stop-color:#EF4136"/>
			<stop  offset="1" style="stop-color:#FBB040"/>
		</linearGradient>
		<rect x="309.6" y="505.8" class="st5" width="17.8" height="17.8"/>
		<linearGradient id="SVGID_5_" gradientUnits="userSpaceOnUse" x1="283.6447" y1="557.6059" x2="353.3044" y2="455.3004">
			<stop  offset="0" style="stop-color:#EF4136"/>
			<stop  offset="1" style="stop-color:#FBB040"/>
		</linearGradient>
		<rect x="323.3" y="487.1" class="st6" width="10" height="10"/>
		<linearGradient id="SVGID_6_" gradientUnits="userSpaceOnUse" x1="270.4188" y1="548.6005" x2="340.0786" y2="446.2949">
			<stop  offset="0" style="stop-color:#EF4136"/>
			<stop  offset="1" style="stop-color:#FBB040"/>
		</linearGradient>
		<rect x="297.1" y="501.1" class="st7" width="6.7" height="6.7"/>
		<linearGradient id="SVGID_7_" gradientUnits="userSpaceOnUse" x1="298.3998" y1="567.6527" x2="368.0596" y2="465.3471">
			<stop  offset="0" style="stop-color:#EF4136"/>
			<stop  offset="1" style="stop-color:#FBB040"/>
		</linearGradient>
		<rect x="336.8" y="502.9" class="st8" width="6.7" height="6.7"/>
	</g>
	<g>
		<g>
			<path class="st1" d="M452.1,452.2c-1.8-3-6.8-5.9-12.5-5.9c-7.4,0-10.9,3.1-10.9,7c0,4.6,5.4,5.9,11.8,6.6
				c11,1.4,21.3,4.2,21.3,16.8c0,11.8-10.4,16.8-22.2,16.8c-10.8,0-19.1-3.3-23-13l8.3-4.3c2.3,5.8,8.4,8.4,14.8,8.4
				c6.3,0,12.1-2.2,12.1-7.9c0-5-5.2-7-12.2-7.8c-10.8-1.3-20.7-4.1-20.7-16c0-10.9,10.7-15.3,20.4-15.4c8.2,0,16.7,2.3,20.7,10.5
				L452.1,452.2z"/>
			<path class="st1" d="M507.1,473.6c0,10.7-7.3,19.4-19.4,19.4s-19.3-8.7-19.3-19.4c0-10.6,7.4-19.4,19.2-19.4
				C499.5,454.3,507.1,463,507.1,473.6z M477.6,473.6c0,5.7,3.4,10.9,10.1,10.9c6.7,0,10.1-5.3,10.1-10.9c0-5.6-3.9-11-10.1-11
				C481.1,462.6,477.6,468.1,477.6,473.6z"/>
			<path class="st1" d="M516.4,492.2v-28.6h-6.9v-8.1h6.9v-2.5c0-9.9,6.7-14.5,14.2-14.5c3.2,0,6.6,1.1,9.6,3l-3.4,6.9
				c-2-1.3-3.8-2-5.7-2c-3.2,0-5.6,2.1-5.6,6.6v2.5h10.9v8.1h-10.9v28.6H516.4z"/>
			<path class="st1" d="M556.7,444.6v10.6H567v7.9h-10.3v16.1c0,3.5,2,5.3,4.8,5.3c1.4,0,3.1-0.5,4.4-1.1l2.6,7.8
				c-2.6,1.1-4.8,1.5-7.6,1.6c-8.1,0.3-13.3-4.3-13.3-13.6V463h-6.9v-7.9h6.9v-9.6L556.7,444.6z"/>
			<path class="st1" d="M608,455l8.1,28l8.5-28h10.2l-13,37.4h-10.7l-3.8-11l-3.3-12.4l-3.3,12.4l-3.8,11h-10.7l-13-37.4h10.2
				l8.5,28l8.1-28H608z"/>
			<path class="st1" d="M672,455h8.8v37.2h-8.7l-0.5-5.4c-2.1,4.4-7.9,6.5-12.1,6.6c-11,0.1-19.1-6.7-19.1-19.7
				c0-12.8,8.5-19.5,19.4-19.4c5,0,9.7,2.3,11.8,6L672,455z M649.7,473.6c0,7.1,4.9,11.3,11,11.3c14.5,0,14.5-22.5,0-22.5
				C654.6,462.3,649.7,466.5,649.7,473.6z"/>
			<path class="st1" d="M697.1,455l0.7,4.3c2.9-4.6,6.7-5.3,10.5-5.3c3.8,0,7.5,1.5,9.6,3.5l-4.1,8c-1.9-1.6-3.6-2.4-6.6-2.4
				c-4.8,0-9.3,2.6-9.3,9.4v19.6h-9.2V455H697.1z"/>
			<path class="st1" d="M729.2,476.9c0.6,4.6,4.6,7.9,11.1,7.9c3.4,0,7.8-1.3,9.9-3.5l5.9,5.8c-3.9,4.1-10.3,6-16,6
				c-12.8,0-20.4-7.9-20.4-19.8c0-11.3,7.7-19.4,19.7-19.4c12.4,0,20.2,7.7,18.8,23H729.2z M749.4,469.3c-0.6-4.8-4.4-7.2-9.6-7.2
				c-5,0-9,2.4-10.4,7.2H749.4z"/>
		</g>
		<linearGradient id="SVGID_8_" gradientUnits="userSpaceOnUse" x1="382.0354" y1="558.2348" x2="689.0577" y2="391.4572">
			<stop  offset="0" style="stop-color:#EF4136"/>
			<stop  offset="1" style="stop-color:#FBB040"/>
		</linearGradient>
		<path class="st9" d="M445.2,545.6h-14.9v15.5h-9.9v-52.8c8.3,0,16.6-0.1,24.9-0.1C471,508.3,471.1,545.6,445.2,545.6z
			 M430.3,536.5h14.9c12.7,0,12.7-18.7,0-18.7h-14.9V536.5z"/>
		<linearGradient id="SVGID_9_" gradientUnits="userSpaceOnUse" x1="400.7412" y1="592.6707" x2="707.7636" y2="425.8931">
			<stop  offset="0" style="stop-color:#EF4136"/>
			<stop  offset="1" style="stop-color:#FBB040"/>
		</linearGradient>
		<path class="st10" d="M498.5,523.9h8.8v37.2h-8.7l-0.5-5.4c-2.1,4.4-7.9,6.5-12.1,6.6c-11,0.1-19.1-6.7-19.1-19.7
			c0-12.8,8.5-19.5,19.4-19.4c5,0,9.7,2.3,11.8,6L498.5,523.9z M476.2,542.5c0,7.1,4.9,11.3,11,11.3c14.5,0,14.5-22.5,0-22.5
			C481.1,531.3,476.2,535.4,476.2,542.5z"/>
		<linearGradient id="SVGID_10_" gradientUnits="userSpaceOnUse" x1="406.8025" y1="603.8287" x2="713.8248" y2="437.0512">
			<stop  offset="0" style="stop-color:#EF4136"/>
			<stop  offset="1" style="stop-color:#FBB040"/>
		</linearGradient>
		<path class="st11" d="M523.6,523.9l0.7,4.3c2.9-4.6,6.7-5.3,10.5-5.3c3.8,0,7.5,1.5,9.6,3.5l-4.1,8c-1.9-1.6-3.6-2.4-6.6-2.4
			c-4.8,0-9.3,2.6-9.3,9.4v19.6h-9.2v-37.2H523.6z"/>
		<linearGradient id="SVGID_11_" gradientUnits="userSpaceOnUse" x1="414.7513" y1="618.471" x2="721.7736" y2="451.6935">
			<stop  offset="0" style="stop-color:#EF4136"/>
			<stop  offset="1" style="stop-color:#FBB040"/>
		</linearGradient>
		<path class="st12" d="M563.1,513.5V524h10.2v7.9H563V548c0,3.5,2,5.3,4.8,5.3c1.4,0,3.1-0.5,4.4-1.1l2.6,7.8
			c-2.6,1.1-4.8,1.5-7.6,1.6c-8.1,0.3-13.3-4.3-13.3-13.6v-16.1h-6.9V524h6.9v-9.6L563.1,513.5z"/>
		<linearGradient id="SVGID_12_" gradientUnits="userSpaceOnUse" x1="451.6399" y1="614.7626" x2="697.9136" y2="480.9843">
			<stop  offset="0" style="stop-color:#EF4136"/>
			<stop  offset="1" style="stop-color:#FBB040"/>
		</linearGradient>
		<path class="st13" d="M580.2,523.8v37.3h9.2v-37.3H580.2z"/>
		<linearGradient id="SVGID_13_" gradientUnits="userSpaceOnUse" x1="428.5231" y1="643.8145" x2="735.5455" y2="477.0369">
			<stop  offset="0" style="stop-color:#EF4136"/>
			<stop  offset="1" style="stop-color:#FBB040"/>
		</linearGradient>
		<path class="st14" d="M629.5,556.3c-4.3,4.2-8.8,5.9-14.3,5.9c-10.8,0-19.7-6.5-19.7-19.7s9-19.7,19.7-19.7
			c5.3,0,9.3,1.5,13.4,5.5l-5.8,6.1c-2.2-2-4.9-2.9-7.5-2.9c-6.2,0-10.7,4.5-10.7,11c0,7.1,4.8,10.9,10.6,10.9
			c2.9,0,5.9-0.8,8.1-3.1L629.5,556.3z"/>
		<linearGradient id="SVGID_14_" gradientUnits="userSpaceOnUse" x1="430.5443" y1="647.5354" x2="737.5667" y2="480.7578">
			<stop  offset="0" style="stop-color:#EF4136"/>
			<stop  offset="1" style="stop-color:#FBB040"/>
		</linearGradient>
		<path class="st15" d="M642.7,508.4v52.7h-9.1v-52.7H642.7z"/>
		<linearGradient id="SVGID_15_" gradientUnits="userSpaceOnUse" x1="440.916" y1="666.6287" x2="747.9383" y2="499.8511">
			<stop  offset="0" style="stop-color:#EF4136"/>
			<stop  offset="1" style="stop-color:#FBB040"/>
		</linearGradient>
		<path class="st16" d="M658.6,545.8c0.6,4.6,4.6,7.9,11.1,7.9c3.4,0,7.8-1.3,9.9-3.5l5.9,5.8c-3.9,4.1-10.3,6-16,6
			c-12.8,0-20.4-7.9-20.4-19.8c0-11.3,7.7-19.4,19.7-19.4c12.4,0,20.2,7.7,18.8,23H658.6z M678.8,538.2c-0.6-4.8-4.4-7.2-9.6-7.2
			c-5,0-9,2.4-10.4,7.2H678.8z"/>
		<linearGradient id="SVGID_16_" gradientUnits="userSpaceOnUse" x1="450.175" y1="683.6736" x2="757.1973" y2="516.8961">
			<stop  offset="0" style="stop-color:#EF4136"/>
			<stop  offset="1" style="stop-color:#FBB040"/>
		</linearGradient>
		<path class="st17" d="M719,533.8c-2.6-2.5-5.7-3.3-9.2-3.3c-4.4,0-6.8,1.4-6.8,3.7c0,2.4,2.2,3.8,6.9,4.1c7,0.5,15.9,2,15.9,11.9
			c0,6.6-5.4,12.2-16,12.2c-5.9,0-11.8-1-17.2-6.6l4.5-6.6c2.6,2.9,8.7,5.1,12.8,5.2c3.5,0.1,6.7-1.7,6.7-4.4c0-2.6-2.1-3.6-7.4-3.9
			c-7-0.5-15.4-3.1-15.4-11.5c0-8.6,8.9-11.6,15.7-11.6c5.8,0,10.2,1.1,14.5,4.9L719,533.8z"/>
		<linearGradient id="SVGID_17_" gradientUnits="userSpaceOnUse" x1="543.3978" y1="538.3497" x2="619.212" y2="497.1667">
			<stop  offset="0" style="stop-color:#EF4136"/>
			<stop  offset="1" style="stop-color:#FBB040"/>
		</linearGradient>
		<rect x="581.4" y="513.1" class="st18" width="5.9" height="5.9"/>
		<linearGradient id="SVGID_18_" gradientUnits="userSpaceOnUse" x1="519.895" y1="545.9672" x2="657.4294" y2="471.2571">
			<stop  offset="0" style="stop-color:#EF4136"/>
			<stop  offset="1" style="stop-color:#FBB040"/>
		</linearGradient>
		<rect x="588.9" y="500.2" class="st19" width="10.7" height="10.7"/>
		<linearGradient id="SVGID_19_" gradientUnits="userSpaceOnUse" x1="532.884" y1="529.3062" x2="620.2971" y2="481.8225">
			<stop  offset="0" style="stop-color:#EF4136"/>
			<stop  offset="1" style="stop-color:#FBB040"/>
		</linearGradient>
		<rect x="576.8" y="500.2" class="st20" width="6.8" height="6.8"/>
	</g>
</g>
</svg>
