<?xml version="1.0" encoding="utf-8"?>
<!-- Generator: Adobe Illustrator 24.3.0, SVG Export Plug-In . SVG Version: 6.00 Build 0)  -->
<svg version="1.1" id="Layer_1" xmlns="http://www.w3.org/2000/svg" xmlns:xlink="http://www.w3.org/1999/xlink" x="0px" y="0px"
	 viewBox="0 0 1000 1000" style="enable-background:new 0 0 1000 1000;" xml:space="preserve">
<style type="text/css">
	.st0{fill:none;}
	.st1{fill:#002F49;}
	.st2{fill:url(#SVGID_1_);}
	.st3{fill:url(#SVGID_2_);}
	.st4{fill:url(#SVGID_3_);}
	.st5{fill:url(#SVGID_4_);}
	.st6{fill:url(#SVGID_5_);}
	.st7{fill:url(#SVGID_6_);}
	.st8{fill:url(#SVGID_7_);}
	.st9{fill:url(#SVGID_8_);}
	.st10{fill:url(#SVGID_9_);}
	.st11{fill:url(#SVGID_10_);}
	.st12{fill:url(#SVGID_11_);}
	.st13{fill:url(#SVGID_12_);}
	.st14{fill:url(#SVGID_13_);}
	.st15{fill:url(#SVGID_14_);}
	.st16{fill:url(#SVGID_15_);}
	.st17{fill:url(#SVGID_16_);}
	.st18{fill:url(#SVGID_17_);}
	.st19{fill:url(#SVGID_18_);}
	.st20{fill:url(#SVGID_19_);}
	.st21{fill:url(#SVGID_20_);}
	.st22{fill:url(#SVGID_21_);}
	.st23{fill:url(#SVGID_22_);}
	.st24{fill:url(#SVGID_23_);}
	.st25{fill:url(#SVGID_24_);}
	.st26{fill:url(#SVGID_25_);}
	.st27{fill:url(#SVGID_26_);}
	.st28{fill:url(#SVGID_27_);}
	.st29{fill:url(#SVGID_28_);}
	.st30{fill:url(#SVGID_29_);}
	.st31{fill:url(#SVGID_30_);}
	.st32{fill:url(#SVGID_31_);}
	.st33{fill:url(#SVGID_32_);}
	.st34{fill:url(#SVGID_33_);}
	.st35{fill:url(#SVGID_34_);}
	.st36{fill:url(#SVGID_35_);}
	.st37{fill:url(#SVGID_36_);}
	.st38{fill:url(#SVGID_37_);}
	.st39{fill:url(#SVGID_38_);}
	.st40{fill:url(#SVGID_39_);}
	.st41{fill:url(#SVGID_40_);}
	.st42{fill:url(#SVGID_41_);}
	.st43{fill:url(#SVGID_42_);}
	.st44{fill:url(#SVGID_43_);}
	.st45{fill:url(#SVGID_44_);}
	.st46{fill:url(#SVGID_45_);}
	.st47{fill:url(#SVGID_46_);}
	.st48{fill:url(#SVGID_47_);}
	.st49{fill:url(#SVGID_48_);}
	.st50{fill:url(#SVGID_49_);}
	.st51{fill:url(#SVGID_50_);}
	.st52{fill:url(#SVGID_51_);}
	.st53{fill:url(#SVGID_52_);}
	.st54{fill:url(#SVGID_53_);}
	.st55{fill:url(#SVGID_54_);}
	.st56{fill:url(#SVGID_55_);}
	.st57{fill:url(#SVGID_56_);}
	.st58{fill:url(#SVGID_57_);}
	.st59{fill:url(#SVGID_58_);}
	.st60{fill:url(#SVGID_59_);}
	.st61{fill:url(#SVGID_60_);}
	.st62{fill:url(#SVGID_61_);}
	.st63{fill:url(#SVGID_62_);}
	.st64{fill:url(#SVGID_63_);}
	.st65{fill:url(#SVGID_64_);}
	.st66{fill:url(#SVGID_65_);}
	.st67{fill:url(#SVGID_66_);}
	.st68{fill:url(#SVGID_67_);}
	.st69{fill:url(#SVGID_68_);}
	.st70{fill:url(#SVGID_69_);}
	.st71{fill:url(#SVGID_70_);}
	.st72{fill:url(#SVGID_71_);}
	.st73{fill:url(#SVGID_72_);}
	.st74{fill:url(#SVGID_73_);}
	.st75{fill:url(#SVGID_74_);}
	.st76{fill:url(#SVGID_75_);}
	.st77{fill:url(#SVGID_76_);}
	.st78{fill:url(#SVGID_77_);}
	.st79{fill:url(#SVGID_78_);}
	.st80{fill:url(#SVGID_79_);}
	.st81{fill:url(#SVGID_80_);}
	.st82{fill:url(#SVGID_81_);}
	.st83{fill:url(#SVGID_82_);}
	.st84{fill:url(#SVGID_83_);}
</style>
<g>
	<g>
		<path class="st0" d="M425.6,488.7c-15.4,20.9-20.2,39.1-13.5,48.5c5.5,7.7,18.9,10,37.1,6.4c-4.3-12.7-6.4-29.1-7.2-38.3
			C436.1,499.8,429.7,493.1,425.6,488.7z"/>
		<path class="st0" d="M490.6,420.6c-5-2.5-9.9-4.8-14.8-6.8c-1.8,5.8-3.2,12.7-4.3,19.1C477.9,428.5,484.3,424.3,490.6,420.6z"/>
		<path class="st0" d="M509.3,528.6c5.1,2.6,10.1,4.9,15,6.8c2-5.7,3.4-12.9,4.5-19.5C522.3,520.5,515.8,524.7,509.3,528.6z"/>
		<path class="st0" d="M558.3,505.3c-0.9,9.3-2.9,25.6-7.3,38.4c18.1,3.5,31.5,1.2,36.9-6.5c6.7-9.4,1.9-27.5-13.4-48.4
			C570.3,493.3,564,499.8,558.3,505.3z"/>
		<path class="st0" d="M528.6,433.1c-1.1-6.5-2.5-13.5-4.3-19.3c-4.9,2-9.9,4.3-14.9,6.8C515.8,424.4,522.3,428.6,528.6,433.1z"/>
		<path class="st0" d="M521.2,543.8c-7-2.8-14.1-6.2-21.2-10c-7.1,3.8-14.2,7.1-21.1,10l0.3,0.9l-9.3,3.3
			c8,21.9,19.3,34.6,30.1,34.6c10.8,0,22.1-12.7,30.1-34.6l-9.1-3.3L521.2,543.8z"/>
		<path class="st0" d="M471.5,516.1c1,6.5,2.5,13.6,4.4,19.2c4.8-2,9.7-4.2,14.8-6.8C484.3,524.8,477.8,520.6,471.5,516.1z"/>
		<path class="st0" d="M530.3,503.7c0.4-3.5,0.5-5.8,0.5-5.8l0.4-5.7l4.3-3.8c1.8-1.6,3.8-3.5,5.8-5.5c0.1-2.7,0.1-5.4,0.1-8.2
			c0-2.7,0-5.3-0.1-7.9c-3.1-2.8-5.3-4.8-5.4-4.8l-4.3-3.7l-0.5-5.7c0-0.1-0.2-2.8-0.7-7c-2.1-1.6-4.2-3.1-6.4-4.7
			c-7.9-5.7-16-10.8-24-15.3c-8,4.5-16.1,9.6-24,15.3c-2.1,1.5-4.1,3-6.2,4.5c-0.5,4.3-0.8,7.1-0.8,7.1l-0.5,5.7l-4.3,3.7
			c-0.1,0-2.4,2-5.6,5c-0.1,2.5-0.1,5.1-0.1,7.7c0,2.7,0,5.4,0.1,8.1c2.1,2.1,4.2,4.1,6,5.7l4.3,3.8l0.4,5.7c0,0.1,0.2,2.4,0.5,6
			c2,1.5,4,3,6,4.4c8.2,5.8,16.2,10.9,24,15.3c7.8-4.4,15.9-9.5,24-15.3C526.2,506.7,528.2,505.2,530.3,503.7z"/>
		<path class="st0" d="M478.6,405.2c7,2.8,14.2,6.2,21.4,10.1c7.3-3.9,14.5-7.3,21.5-10.1l-0.4-1.3l8.9-2.9
			c-8-21.7-19.2-34.3-30-34.3c-10.8,0-21.9,12.6-30,34.3l9.1,3L478.6,405.2z"/>
		<path class="st0" d="M441.7,444.5c1-9.3,3.3-25.8,7.4-39c-5.6-1.1-10.8-1.7-15.4-1.7c-10.3,0-17.8,2.7-21.6,8.1
			c-6.7,9.4-1.9,27.5,13.4,48.3C430.9,454.4,437.4,448.4,441.7,444.5z"/>
		<path class="st0" d="M574.7,460c15.2-20.8,20-38.8,13.3-48.2c-3.8-5.3-11.3-8.1-21.6-8.1c-4.6,0-9.7,0.6-15.3,1.7
			c4.1,13.2,6.4,29.7,7.4,39C562.8,448.3,569.2,454.3,574.7,460z"/>
		<g>
			<path class="st1" d="M458.7,466.9c-2.4,2.2-5.2,4.8-8.1,7.6c2.5,2.6,5.3,5.5,8.1,8.1c-0.1-2.6-0.1-5.3-0.1-8.1
				C458.6,471.9,458.6,469.4,458.7,466.9z"/>
			<path class="st1" d="M500,366.5c10.8,0,22,12.6,30,34.3l8.5-2.8c-0.6-1.6-1.2-3.3-1.9-4.8c-9.4-23.1-22.4-35.7-36.6-35.7
				s-27.2,12.7-36.6,35.7c-0.6,1.6-1.2,3.2-1.8,4.8l8.5,2.8C478.1,379.1,489.2,366.5,500,366.5z"/>
			<path class="st1" d="M541.3,466.7c0.1,2.6,0.1,5.2,0.1,7.9c0,2.8,0,5.5-0.1,8.2c2.8-2.7,5.7-5.7,8.3-8.3
				C546.6,471.6,543.7,468.9,541.3,466.7z"/>
			<path class="st1" d="M500,582.5c-10.8,0-22-12.7-30.1-34.6l-8.4,3c0.6,1.6,1.2,3.2,1.8,4.8c9.4,23.1,22.4,35.7,36.6,35.7
				s27.2-12.7,36.6-35.7c0.6-1.6,1.3-3.2,1.9-4.9l-8.4-3C522.1,569.8,510.8,582.5,500,582.5z"/>
			<path class="st1" d="M580.7,482.2l-1.6,1.7c-0.2,0.2-2,2.1-4.6,4.9c15.3,20.9,20.1,39,13.4,48.4c-5.4,7.6-18.8,10-36.9,6.5
				c-0.2,0.5-0.3,1-0.5,1.5l-2.5,7.1c6.6,1.4,12.8,2.1,18.3,2.1c13.4,0,23.4-4,29-11.8c8.2-11.6,5.5-29.5-7.9-50.6
				C585.4,488.7,583.1,485.4,580.7,482.2z"/>
			<path class="st1" d="M528.6,433.1c-6.4-4.5-12.8-8.7-19.3-12.5c5-2.5,10-4.8,14.9-6.8c-0.1-0.3-0.2-0.6-0.3-0.9l-2.5-7.7
				c-7.1,2.9-14.3,6.3-21.5,10.1c-7.2-3.9-14.3-7.2-21.4-10.1l-2.5,7.6c-0.1,0.3-0.2,0.6-0.3,1c4.9,2,9.8,4.3,14.8,6.8
				c-6.4,3.8-12.8,7.9-19.1,12.4c-0.8,4.7-1.4,9-1.8,12.4c2-1.5,4-3,6.2-4.5c7.9-5.7,16-10.8,24-15.3c8,4.5,16.1,9.6,24,15.3
				c2.2,1.6,4.3,3.1,6.4,4.7C530,442.1,529.4,437.7,528.6,433.1z"/>
			<path class="st1" d="M419.4,467l1.3-1.5c1.4-1.7,3.1-3.5,4.8-5.3c-15.3-20.8-20-38.9-13.4-48.3c3.8-5.3,11.3-8.1,21.6-8.1
				c4.6,0,9.8,0.6,15.4,1.7c0.1-0.4,0.3-0.9,0.4-1.3l2.4-7.3c-22.6-4.7-39.3-1.3-47.2,9.8c-8.2,11.6-5.5,29.5,7.9,50.6
				C414.6,460.4,416.9,463.7,419.4,467z"/>
			<path class="st1" d="M530.3,503.7c-2,1.5-4.1,3.1-6.2,4.6c-8.2,5.8-16.2,10.9-24,15.3c-7.8-4.4-15.9-9.5-24-15.3
				c-2.1-1.5-4.1-3-6-4.4c0.3,3.3,0.8,7.6,1.6,12.3c6.3,4.5,12.8,8.7,19.2,12.5c-5.1,2.6-10,4.8-14.8,6.8c0,0.1,0.1,0.2,0.1,0.3
				l2.9,8.1c6.9-2.8,14-6.2,21.1-10c7.2,3.8,14.3,7.2,21.2,10l2.9-8.1c0-0.1,0.1-0.2,0.1-0.3c-4.8-2-9.8-4.3-15-6.8
				c6.5-3.8,13-8.1,19.4-12.6C529.4,511.3,529.9,506.9,530.3,503.7z"/>
			<path class="st1" d="M551,405.4c5.6-1.1,10.7-1.7,15.3-1.7c10.3,0,17.8,2.7,21.6,8.1c6.7,9.4,1.9,27.4-13.3,48.2
				c1.8,1.9,3.4,3.7,4.9,5.4l1.2,1.4c2.4-3.2,4.7-6.5,6.7-9.7c13.3-21,16.1-39,7.9-50.6c-7.9-11-24.5-14.5-47-9.8l2.4,7.3
				C550.8,404.6,550.9,405,551,405.4z"/>
			<path class="st1" d="M449.2,543.7c-18.2,3.6-31.6,1.2-37.1-6.4c-6.7-9.4-1.9-27.6,13.5-48.5c-2.6-2.7-4.3-4.6-4.5-4.8l-1.7-1.8
				c-2.5,3.3-4.8,6.5-6.8,9.8c-13.3,21-16.1,39-7.9,50.6c5.6,7.8,15.6,11.8,29,11.8c5.6,0,11.8-0.7,18.5-2.1l-2.5-7
				C449.5,544.7,449.3,544.2,449.2,543.7z"/>
		</g>
		<g>
			<linearGradient id="SVGID_1_" gradientUnits="userSpaceOnUse" x1="476.8015" y1="564.6467" x2="567.7015" y2="431.1468">
				<stop  offset="0" style="stop-color:#EF4136"/>
				<stop  offset="1" style="stop-color:#FBB040"/>
			</linearGradient>
			<path class="st2" d="M574.5,474.6l-2.4-2.8l-0.1-0.1c-1-1.2-2.2-2.6-3.5-3.9c-1.4-1.5-2.9-3-4.4-4.5c-5.9-5.9-12.3-11.6-15-14
				c0,0,0,0,0,0c0-0.1,0-0.2,0-0.4c-0.4-3.8-1.3-11.8-2.8-20.8c-1.2-6.8-2.7-14-4.7-20.3c-0.1-0.2-0.1-0.3-0.2-0.5c0,0,0,0,0,0
				l-8.4,2.7l-0.1,0l-0.1,0c0,0.1,0.1,0.3,0.1,0.4c0.6,1.8,1.1,3.6,1.6,5.6c0,0,0,0.1,0,0.1c2.2,8.4,3.6,17.8,4.6,24.9
				c0.8,6.3,1.2,10.7,1.2,10.8l0.2,1.8l0,0l0.3,0.3l1,0.9c0.1,0.1,3.6,3.1,8.1,7.3c4,3.7,8.7,8.2,12.5,12.3c-2.2,2.4-5.6,6-9.3,9.7
				c-1,1.1-2.1,2.1-3.2,3.2c-2.9,2.9-5.9,5.8-8.5,8.1l-1.1,1l-0.3,0.3l-0.1,1.8c0,0.1-0.3,4-0.9,9.6c-0.3,2.7-0.7,5.8-1.2,9
				c-1,6.8-2.5,14.2-4.6,20.4c-0.1,0.4-0.3,0.8-0.4,1.2c0,0.1-0.1,0.2-0.1,0.3l0.1,0l8.4,3c0,0,0-0.1,0-0.1c0,0,0,0,0,0
				c0.1-0.2,0.1-0.3,0.2-0.5c3-8.5,4.8-19.1,6-27.7c0.8-5.7,1.2-10.4,1.4-12.8c0.1-0.1,0.1-0.1,0.2-0.2c3.9-3.6,8.4-8.1,12.3-12.1
				c2.7-2.8,5.2-5.4,7.1-7.4c1.7-1.8,2.9-3.1,3.3-3.5c0.1-0.1,0.1-0.1,0.1-0.1l2.7-2.9L574.5,474.6z"/>
			<linearGradient id="SVGID_2_" gradientUnits="userSpaceOnUse" x1="424.5532" y1="529.0709" x2="515.4532" y2="395.5709">
				<stop  offset="0" style="stop-color:#EF4136"/>
				<stop  offset="1" style="stop-color:#FBB040"/>
			</linearGradient>
			<path class="st3" d="M443.6,468c2.1-2.1,4.3-4.1,6.3-6c1.8-1.7,3.5-3.2,4.8-4.4c1.9-1.7,3.2-2.8,3.2-2.9l1.4-1.2l0.2-1.8
				c0-0.1,0.4-4.5,1.2-10.7c1.1-8.7,3.1-21.1,6.2-30.7c0-0.1,0.1-0.3,0.1-0.4l-8.4-2.8l0,0l-0.1,0c-0.1,0.2-0.1,0.3-0.2,0.5
				c-4.8,14.9-7,35.3-7.6,41.5c-3.4,3-12.5,11.2-19.3,18.5c-1.3,1.4-2.5,2.7-3.5,4l-2.4,2.9l-0.1,0.2l0,0l2.6,2.9
				c0.2,0.2,1.5,1.6,3.5,3.7c0.4,0.4,0.8,0.8,1.2,1.3c0.5,0.5,1,1,1.5,1.6c4.7,4.9,11.3,11.7,16.8,16.7c0,0,0,0,0.1,0.1
				c0.1,1,0.2,2.3,0.3,3.8c0.8,8.5,2.9,24.8,7,36.7c0.1,0.2,0.1,0.4,0.2,0.6l0.1,0l8.4-3c0,0,0,0,0,0c0-0.1,0-0.1-0.1-0.2
				c-3.2-9-5.1-21.2-6.1-29.8c0-0.3-0.1-0.6-0.1-0.9c-0.6-5.6-0.9-9.4-0.9-9.5l-0.1-1.8l-0.2-0.2l-1.2-1.1c-2.5-2.3-5.5-5.1-8.4-8
				c-2-2-3.9-4-5.8-5.8c-2.7-2.8-5.1-5.3-6.8-7.1c0,0,0,0,0,0C439.2,472.4,441.4,470.1,443.6,468z"/>
		</g>
		<linearGradient id="SVGID_3_" gradientUnits="userSpaceOnUse" x1="433.8009" y1="535.3677" x2="524.7009" y2="401.8677">
			<stop  offset="0" style="stop-color:#EF4136"/>
			<stop  offset="1" style="stop-color:#FBB040"/>
		</linearGradient>
		<rect x="478.5" y="446.8" class="st4" width="18.6" height="18.6"/>
		<linearGradient id="SVGID_4_" gradientUnits="userSpaceOnUse" x1="459.8856" y1="553.1287" x2="550.7856" y2="419.6287">
			<stop  offset="0" style="stop-color:#EF4136"/>
			<stop  offset="1" style="stop-color:#FBB040"/>
		</linearGradient>
		<rect x="488.8" y="482.1" class="st5" width="23.2" height="23.2"/>
		<linearGradient id="SVGID_5_" gradientUnits="userSpaceOnUse" x1="454.8672" y1="549.7117" x2="545.7672" y2="416.2117">
			<stop  offset="0" style="stop-color:#EF4136"/>
			<stop  offset="1" style="stop-color:#FBB040"/>
		</linearGradient>
		<rect x="506.6" y="457.7" class="st6" width="13.1" height="13.1"/>
		<linearGradient id="SVGID_6_" gradientUnits="userSpaceOnUse" x1="437.6086" y1="537.9603" x2="528.5085" y2="404.4603">
			<stop  offset="0" style="stop-color:#EF4136"/>
			<stop  offset="1" style="stop-color:#FBB040"/>
		</linearGradient>
		<rect x="472.4" y="476" class="st7" width="8.8" height="8.8"/>
		<linearGradient id="SVGID_7_" gradientUnits="userSpaceOnUse" x1="474.1214" y1="562.8218" x2="565.0214" y2="429.3218">
			<stop  offset="0" style="stop-color:#EF4136"/>
			<stop  offset="1" style="stop-color:#FBB040"/>
		</linearGradient>
		<rect x="524.2" y="478.4" class="st8" width="8.8" height="8.8"/>
	</g>
	<g>
		<g>
			<path class="st1" d="M269,609.7c-1.4-2.4-5.4-4.7-9.9-4.7c-5.8,0-8.6,2.4-8.6,5.5c0,3.6,4.3,4.7,9.3,5.2
				c8.7,1.1,16.8,3.3,16.8,13.3c0,9.3-8.2,13.3-17.5,13.3c-8.5,0-15.1-2.6-18.2-10.3l6.6-3.4c1.8,4.6,6.7,6.6,11.8,6.6
				c5,0,9.6-1.7,9.6-6.3c0-3.9-4.1-5.5-9.7-6.1c-8.5-1-16.4-3.3-16.4-12.6c0-8.6,8.5-12.1,16.2-12.2c6.5,0,13.2,1.8,16.4,8.3
				L269,609.7z"/>
			<path class="st1" d="M312.5,626.7c0,8.5-5.8,15.3-15.3,15.3s-15.3-6.9-15.3-15.3c0-8.4,5.8-15.3,15.2-15.3
				C306.5,611.4,312.5,618.3,312.5,626.7z M289.2,626.7c0,4.5,2.7,8.6,8,8.6s8-4.2,8-8.6c0-4.4-3.1-8.7-8-8.7
				C291.9,618,289.2,622.3,289.2,626.7z"/>
			<path class="st1" d="M319.9,641.4v-22.6h-5.5v-6.4h5.5v-2c0-7.9,5.3-11.5,11.2-11.5c2.6,0,5.2,0.8,7.6,2.4l-2.7,5.4
				c-1.6-1-3-1.6-4.5-1.6c-2.5,0-4.4,1.7-4.4,5.2v2h8.6v6.4h-8.6v22.6H319.9z"/>
			<path class="st1" d="M351.8,603.7v8.4h8.1v6.3h-8.2V631c0,2.8,1.6,4.2,3.8,4.2c1.1,0,2.4-0.4,3.5-0.9l2,6.2
				c-2.1,0.8-3.8,1.2-6,1.3c-6.4,0.2-10.6-3.4-10.6-10.7v-12.7h-5.5V612h5.5v-7.6L351.8,603.7z"/>
			<path class="st1" d="M392.4,611.9l6.4,22.1l6.7-22.1h8.1l-10.3,29.6h-8.5l-3-8.7l-2.6-9.8l-2.6,9.8l-3,8.7h-8.5l-10.3-29.6h8.1
				l6.7,22.1l6.4-22.1H392.4z"/>
			<path class="st1" d="M443.1,612h7v29.4h-6.9l-0.4-4.3c-1.7,3.5-6.3,5.1-9.5,5.2c-8.7,0.1-15.2-5.3-15.2-15.6
				c0-10.1,6.7-15.4,15.3-15.4c3.9,0,7.7,1.8,9.4,4.8L443.1,612z M425.4,626.6c0,5.6,3.9,8.9,8.7,8.9c11.5,0,11.5-17.8,0-17.8
				C429.3,617.8,425.4,621,425.4,626.6z"/>
			<path class="st1" d="M462.9,612l0.5,3.4c2.3-3.6,5.3-4.2,8.3-4.2c3,0,6,1.2,7.6,2.8l-3.3,6.3c-1.5-1.3-2.9-1.9-5.2-1.9
				c-3.8,0-7.3,2-7.3,7.5v15.5h-7.3V612H462.9z"/>
			<path class="st1" d="M488.3,629.3c0.5,3.6,3.6,6.3,8.8,6.3c2.7,0,6.2-1,7.9-2.7l4.7,4.6c-3.1,3.2-8.2,4.8-12.6,4.8
				c-10.1,0-16.2-6.3-16.2-15.7c0-8.9,6.1-15.4,15.6-15.4c9.8,0,16,6.1,14.9,18.2H488.3z M504.3,623.2c-0.5-3.8-3.5-5.7-7.6-5.7
				c-3.9,0-7.2,1.9-8.2,5.7H504.3z"/>
		</g>
		<linearGradient id="SVGID_8_" gradientUnits="userSpaceOnUse" x1="487.0557" y1="639.1165" x2="730.0557" y2="507.1164">
			<stop  offset="0" style="stop-color:#EF4136"/>
			<stop  offset="1" style="stop-color:#FBB040"/>
		</linearGradient>
		<path class="st9" d="M537.1,629.1h-11.8v12.3h-7.9v-41.8c6.6,0,13.1-0.1,19.7-0.1C557.5,599.6,557.5,629.1,537.1,629.1z
			 M525.3,621.9h11.8c10.1,0,10-14.8,0-14.8h-11.8V621.9z"/>
		<linearGradient id="SVGID_9_" gradientUnits="userSpaceOnUse" x1="501.8609" y1="666.3715" x2="744.8609" y2="534.3715">
			<stop  offset="0" style="stop-color:#EF4136"/>
			<stop  offset="1" style="stop-color:#FBB040"/>
		</linearGradient>
		<path class="st10" d="M579.2,612h7v29.4h-6.9l-0.4-4.3c-1.7,3.5-6.3,5.1-9.5,5.2c-8.7,0.1-15.2-5.3-15.2-15.6
			c0-10.1,6.7-15.4,15.3-15.4c3.9,0,7.7,1.8,9.4,4.8L579.2,612z M561.6,626.6c0,5.6,3.9,8.9,8.7,8.9c11.5,0,11.5-17.8,0-17.8
			C565.5,617.8,561.6,621,561.6,626.6z"/>
		<linearGradient id="SVGID_10_" gradientUnits="userSpaceOnUse" x1="506.6582" y1="675.2028" x2="749.6582" y2="543.2028">
			<stop  offset="0" style="stop-color:#EF4136"/>
			<stop  offset="1" style="stop-color:#FBB040"/>
		</linearGradient>
		<path class="st11" d="M599.1,612l0.5,3.4c2.3-3.6,5.3-4.2,8.3-4.2c3,0,6,1.2,7.6,2.8l-3.3,6.3c-1.5-1.3-2.9-1.9-5.2-1.9
			c-3.8,0-7.3,2-7.3,7.5v15.5h-7.3V612H599.1z"/>
		<linearGradient id="SVGID_11_" gradientUnits="userSpaceOnUse" x1="512.9495" y1="686.7918" x2="755.9495" y2="554.7918">
			<stop  offset="0" style="stop-color:#EF4136"/>
			<stop  offset="1" style="stop-color:#FBB040"/>
		</linearGradient>
		<path class="st12" d="M630.3,603.7v8.4h8.1v6.3h-8.2V631c0,2.8,1.6,4.2,3.8,4.2c1.1,0,2.4-0.4,3.5-0.9l2,6.2
			c-2.1,0.8-3.8,1.2-6,1.3c-6.4,0.2-10.6-3.4-10.6-10.7v-12.7h-5.5V612h5.5v-7.6L630.3,603.7z"/>
		<linearGradient id="SVGID_12_" gradientUnits="userSpaceOnUse" x1="542.1458" y1="683.8567" x2="737.0649" y2="577.9747">
			<stop  offset="0" style="stop-color:#EF4136"/>
			<stop  offset="1" style="stop-color:#FBB040"/>
		</linearGradient>
		<path class="st13" d="M643.9,611.9v29.5h7.3v-29.5H643.9z"/>
		<linearGradient id="SVGID_13_" gradientUnits="userSpaceOnUse" x1="523.8495" y1="706.8505" x2="766.8495" y2="574.8505">
			<stop  offset="0" style="stop-color:#EF4136"/>
			<stop  offset="1" style="stop-color:#FBB040"/>
		</linearGradient>
		<path class="st14" d="M682.9,637.6c-3.4,3.3-7,4.7-11.3,4.7c-8.5,0-15.6-5.1-15.6-15.6s7.1-15.6,15.6-15.6c4.2,0,7.4,1.2,10.6,4.4
			l-4.6,4.8c-1.7-1.6-3.9-2.3-5.9-2.3c-4.9,0-8.5,3.6-8.5,8.7c0,5.6,3.8,8.6,8.4,8.6c2.3,0,4.7-0.7,6.4-2.4L682.9,637.6z"/>
		<linearGradient id="SVGID_14_" gradientUnits="userSpaceOnUse" x1="525.4493" y1="709.7955" x2="768.4493" y2="577.7955">
			<stop  offset="0" style="stop-color:#EF4136"/>
			<stop  offset="1" style="stop-color:#FBB040"/>
		</linearGradient>
		<path class="st15" d="M693.4,599.7v41.7h-7.2v-41.7H693.4z"/>
		<linearGradient id="SVGID_15_" gradientUnits="userSpaceOnUse" x1="533.6581" y1="724.9072" x2="776.6581" y2="592.9072">
			<stop  offset="0" style="stop-color:#EF4136"/>
			<stop  offset="1" style="stop-color:#FBB040"/>
		</linearGradient>
		<path class="st16" d="M706,629.3c0.5,3.6,3.6,6.3,8.8,6.3c2.7,0,6.2-1,7.9-2.7l4.7,4.6c-3.1,3.2-8.2,4.8-12.6,4.8
			c-10.1,0-16.2-6.3-16.2-15.7c0-8.9,6.1-15.4,15.6-15.4c9.8,0,16,6.1,14.9,18.2H706z M722,623.2c-0.5-3.8-3.5-5.7-7.6-5.7
			c-3.9,0-7.2,1.9-8.2,5.7H722z"/>
		<linearGradient id="SVGID_16_" gradientUnits="userSpaceOnUse" x1="540.9864" y1="738.3979" x2="783.9864" y2="606.3979">
			<stop  offset="0" style="stop-color:#EF4136"/>
			<stop  offset="1" style="stop-color:#FBB040"/>
		</linearGradient>
		<path class="st17" d="M753.7,619.8c-2.1-2-4.5-2.6-7.3-2.6c-3.5,0-5.4,1.1-5.4,2.9c0,1.9,1.7,3,5.5,3.2c5.5,0.4,12.6,1.6,12.6,9.4
			c0,5.2-4.2,9.7-12.6,9.7c-4.7,0-9.3-0.8-13.6-5.2l3.6-5.2c2.1,2.3,6.9,4.1,10.1,4.1c2.7,0.1,5.3-1.4,5.3-3.5c0-2-1.7-2.9-5.8-3.1
			c-5.5-0.4-12.2-2.4-12.2-9.1c0-6.8,7-9.2,12.4-9.2c4.6,0,8.1,0.9,11.5,3.9L753.7,619.8z"/>
		<linearGradient id="SVGID_17_" gradientUnits="userSpaceOnUse" x1="614.7698" y1="623.3779" x2="674.7747" y2="590.7826">
			<stop  offset="0" style="stop-color:#EF4136"/>
			<stop  offset="1" style="stop-color:#FBB040"/>
		</linearGradient>
		<rect x="644.9" y="603.4" class="st18" width="4.7" height="4.7"/>
		<linearGradient id="SVGID_18_" gradientUnits="userSpaceOnUse" x1="596.1679" y1="629.4069" x2="705.0228" y2="570.2759">
			<stop  offset="0" style="stop-color:#EF4136"/>
			<stop  offset="1" style="stop-color:#FBB040"/>
		</linearGradient>
		<rect x="650.8" y="593.2" class="st19" width="8.4" height="8.4"/>
		<linearGradient id="SVGID_19_" gradientUnits="userSpaceOnUse" x1="606.4484" y1="616.2202" x2="675.6335" y2="578.6381">
			<stop  offset="0" style="stop-color:#EF4136"/>
			<stop  offset="1" style="stop-color:#FBB040"/>
		</linearGradient>
		<rect x="641.2" y="593.2" class="st20" width="5.4" height="5.4"/>
	</g>
</g>
</svg>
