<?xml version="1.0" encoding="utf-8"?>
<!-- Generator: Adobe Illustrator 24.3.0, SVG Export Plug-In . SVG Version: 6.00 Build 0)  -->
<svg version="1.1" id="Layer_1" xmlns="http://www.w3.org/2000/svg" xmlns:xlink="http://www.w3.org/1999/xlink" x="0px" y="0px"
	 viewBox="0 0 1000 1000" style="enable-background:new 0 0 1000 1000;" xml:space="preserve">
<style type="text/css">
	.st0{fill:none;}
	.st1{fill:#002F49;}
	.st2{fill:url(#SVGID_1_);}
	.st3{fill:url(#SVGID_2_);}
	.st4{fill:url(#SVGID_3_);}
	.st5{fill:url(#SVGID_4_);}
	.st6{fill:url(#SVGID_5_);}
	.st7{fill:url(#SVGID_6_);}
	.st8{fill:url(#SVGID_7_);}
	.st9{fill:url(#SVGID_8_);}
	.st10{fill:url(#SVGID_9_);}
	.st11{fill:url(#SVGID_10_);}
	.st12{fill:url(#SVGID_11_);}
	.st13{fill:url(#SVGID_12_);}
	.st14{fill:url(#SVGID_13_);}
	.st15{fill:url(#SVGID_14_);}
	.st16{fill:url(#SVGID_15_);}
	.st17{fill:url(#SVGID_16_);}
	.st18{fill:url(#SVGID_17_);}
	.st19{fill:url(#SVGID_18_);}
	.st20{fill:url(#SVGID_19_);}
	.st21{fill:url(#SVGID_20_);}
	.st22{fill:url(#SVGID_21_);}
	.st23{fill:url(#SVGID_22_);}
	.st24{fill:url(#SVGID_23_);}
	.st25{fill:url(#SVGID_24_);}
	.st26{fill:url(#SVGID_25_);}
	.st27{fill:url(#SVGID_26_);}
	.st28{fill:url(#SVGID_27_);}
	.st29{fill:url(#SVGID_28_);}
	.st30{fill:url(#SVGID_29_);}
	.st31{fill:url(#SVGID_30_);}
	.st32{fill:url(#SVGID_31_);}
	.st33{fill:url(#SVGID_32_);}
	.st34{fill:url(#SVGID_33_);}
	.st35{fill:url(#SVGID_34_);}
	.st36{fill:url(#SVGID_35_);}
	.st37{fill:url(#SVGID_36_);}
	.st38{fill:url(#SVGID_37_);}
	.st39{fill:url(#SVGID_38_);}
	.st40{fill:url(#SVGID_39_);}
	.st41{fill:url(#SVGID_40_);}
	.st42{fill:url(#SVGID_41_);}
	.st43{fill:url(#SVGID_42_);}
	.st44{fill:url(#SVGID_43_);}
	.st45{fill:url(#SVGID_44_);}
	.st46{fill:url(#SVGID_45_);}
	.st47{fill:url(#SVGID_46_);}
	.st48{fill:url(#SVGID_47_);}
	.st49{fill:url(#SVGID_48_);}
	.st50{fill:url(#SVGID_49_);}
	.st51{fill:url(#SVGID_50_);}
	.st52{fill:url(#SVGID_51_);}
	.st53{fill:url(#SVGID_52_);}
	.st54{fill:url(#SVGID_53_);}
	.st55{fill:url(#SVGID_54_);}
	.st56{fill:url(#SVGID_55_);}
	.st57{fill:url(#SVGID_56_);}
	.st58{fill:url(#SVGID_57_);}
	.st59{fill:url(#SVGID_58_);}
	.st60{fill:url(#SVGID_59_);}
	.st61{fill:url(#SVGID_60_);}
	.st62{fill:url(#SVGID_61_);}
	.st63{fill:url(#SVGID_62_);}
	.st64{fill:url(#SVGID_63_);}
	.st65{fill:url(#SVGID_64_);}
	.st66{fill:url(#SVGID_65_);}
	.st67{fill:url(#SVGID_66_);}
	.st68{fill:url(#SVGID_67_);}
	.st69{fill:url(#SVGID_68_);}
	.st70{fill:url(#SVGID_69_);}
	.st71{fill:url(#SVGID_70_);}
	.st72{fill:url(#SVGID_71_);}
	.st73{fill:url(#SVGID_72_);}
	.st74{fill:url(#SVGID_73_);}
	.st75{fill:url(#SVGID_74_);}
	.st76{fill:url(#SVGID_75_);}
	.st77{fill:url(#SVGID_76_);}
	.st78{fill:url(#SVGID_77_);}
	.st79{fill:url(#SVGID_78_);}
	.st80{fill:url(#SVGID_79_);}
	.st81{fill:url(#SVGID_80_);}
	.st82{fill:url(#SVGID_81_);}
	.st83{fill:url(#SVGID_82_);}
	.st84{fill:url(#SVGID_83_);}
</style>
<g>
	<g>
		<path class="st0" d="M254.7,510.9c-11.8,16-15.5,30-10.4,37.2c4.2,5.9,14.5,7.7,28.4,4.9c-3.3-9.8-4.9-22.3-5.5-29.4
			C262.8,519.4,257.9,514.3,254.7,510.9z"/>
		<path class="st0" d="M304.6,458.6c-3.8-1.9-7.6-3.7-11.3-5.2c-1.4,4.4-2.5,9.8-3.3,14.7C294.8,464.7,299.7,461.5,304.6,458.6z"/>
		<path class="st0" d="M318.8,541.4c3.9,2,7.8,3.7,11.5,5.2c1.5-4.3,2.6-9.9,3.4-14.9C328.8,535.2,323.8,538.5,318.8,541.4z"/>
		<path class="st0" d="M356.4,523.6c-0.7,7.1-2.3,19.6-5.6,29.4c13.9,2.7,24.1,0.9,28.3-5c5.1-7.2,1.4-21.1-10.3-37.1
			C365.6,514.3,360.8,519.4,356.4,523.6z"/>
		<path class="st0" d="M333.7,468.2c-0.8-5-1.9-10.3-3.3-14.8c-3.8,1.5-7.6,3.3-11.5,5.2C323.8,461.6,328.8,464.8,333.7,468.2z"/>
		<path class="st0" d="M328,553.1c-5.3-2.2-10.8-4.7-16.3-7.7c-5.4,2.9-10.9,5.5-16.2,7.6l0.2,0.7l-7.1,2.6
			c6.2,16.8,14.8,26.5,23,26.5c8.3,0,16.9-9.7,23.1-26.5l-7-2.5L328,553.1z"/>
		<path class="st0" d="M289.9,531.8c0.8,5,1.9,10.5,3.4,14.7c3.7-1.5,7.5-3.2,11.3-5.2C299.7,538.5,294.7,535.3,289.9,531.8z"/>
		<path class="st0" d="M334.9,522.3c0.3-2.7,0.4-4.4,0.4-4.5l0.3-4.4l3.3-2.9c1.4-1.2,2.9-2.7,4.5-4.2c0.1-2.1,0.1-4.2,0.1-6.3
			c0-2,0-4-0.1-6c-2.4-2.2-4.1-3.6-4.1-3.7l-3.3-2.9l-0.4-4.3c0-0.1-0.2-2.2-0.6-5.4c-1.6-1.2-3.2-2.4-4.9-3.6
			c-6.1-4.3-12.3-8.3-18.4-11.7c-6.2,3.5-12.3,7.4-18.4,11.7c-1.6,1.1-3.2,2.3-4.7,3.5c-0.4,3.3-0.6,5.4-0.6,5.5l-0.4,4.3l-3.3,2.9
			c0,0-1.8,1.6-4.3,3.8C280,496,280,498,280,500c0,2.1,0,4.1,0.1,6.2c1.6,1.6,3.2,3.1,4.6,4.4l3.3,2.9l0.3,4.4
			c0,0.1,0.1,1.8,0.4,4.6c1.5,1.1,3,2.3,4.6,3.4c6.3,4.5,12.4,8.4,18.4,11.8c6-3.4,12.2-7.3,18.4-11.8
			C331.8,524.7,333.4,523.5,334.9,522.3z"/>
		<path class="st0" d="M295.4,446.9c5.4,2.2,10.9,4.8,16.4,7.7c5.6-3,11.1-5.6,16.5-7.8l-0.3-1l6.8-2.2c-6.1-16.7-14.7-26.3-23-26.3
			c-8.3,0-16.8,9.6-23,26.3l7,2.3L295.4,446.9z"/>
		<path class="st0" d="M267.1,476.9c0.8-7.1,2.5-19.7,5.7-29.9c-4.3-0.9-8.3-1.3-11.8-1.3c-7.9,0-13.7,2.1-16.6,6.2
			c-5.1,7.2-1.5,21.1,10.2,37C258.8,484.5,263.7,479.9,267.1,476.9z"/>
		<path class="st0" d="M368.9,488.9c11.7-15.9,15.3-29.8,10.2-36.9c-2.9-4.1-8.7-6.2-16.6-6.2c-3.5,0-7.4,0.4-11.7,1.3
			c3.2,10.1,4.9,22.8,5.7,29.9C359.8,479.9,364.8,484.5,368.9,488.9z"/>
		<g>
			<path class="st1" d="M280.1,494.1c-1.8,1.7-4,3.7-6.2,5.8c1.9,2,4.1,4.2,6.2,6.2c-0.1-2-0.1-4.1-0.1-6.2
				C280,498,280,496,280.1,494.1z"/>
			<path class="st1" d="M311.7,417.2c8.3,0,16.8,9.7,23,26.3l6.5-2.1c-0.5-1.3-0.9-2.5-1.4-3.7c-7.2-17.7-17.2-27.4-28.1-27.4
				c-10.9,0-20.9,9.7-28.1,27.4c-0.5,1.2-1,2.4-1.4,3.7l6.5,2.1C294.9,426.9,303.5,417.2,311.7,417.2z"/>
			<path class="st1" d="M343.4,494c0.1,2,0.1,4,0.1,6c0,2.1,0,4.2-0.1,6.3c2.1-2.1,4.4-4.4,6.3-6.4
				C347.5,497.8,345.2,495.7,343.4,494z"/>
			<path class="st1" d="M311.7,582.8c-8.3,0-16.9-9.7-23-26.5l-6.4,2.3c0.5,1.3,0.9,2.5,1.4,3.7c7.2,17.7,17.2,27.4,28.1,27.4
				c10.9,0,20.9-9.7,28.1-27.4c0.5-1.2,1-2.5,1.4-3.7l-6.4-2.3C328.6,573,320,582.8,311.7,582.8z"/>
			<path class="st1" d="M373.6,505.9l-1.2,1.3c-0.2,0.2-1.5,1.6-3.5,3.8c11.7,16,15.4,29.9,10.3,37.1c-4.2,5.8-14.4,7.6-28.3,5
				c-0.1,0.4-0.3,0.8-0.4,1.1l-1.9,5.4c5.1,1.1,9.8,1.6,14,1.6c10.3,0,17.9-3.1,22.2-9.1c6.3-8.9,4.2-22.6-6-38.8
				C377.2,510.8,375.4,508.4,373.6,505.9z"/>
			<path class="st1" d="M333.7,468.2c-4.9-3.5-9.8-6.7-14.8-9.6c3.9-1.9,7.7-3.7,11.5-5.2c-0.1-0.2-0.1-0.5-0.2-0.7l-1.9-5.9
				c-5.4,2.2-10.9,4.8-16.5,7.8c-5.5-3-11-5.5-16.4-7.7l-1.9,5.8c-0.1,0.2-0.2,0.5-0.2,0.7c3.7,1.5,7.5,3.3,11.3,5.2
				c-4.9,2.9-9.8,6.1-14.6,9.5c-0.6,3.6-1,6.9-1.4,9.5c1.5-1.2,3.1-2.3,4.7-3.5c6.1-4.3,12.3-8.3,18.4-11.7
				c6.2,3.5,12.3,7.4,18.4,11.7c1.7,1.2,3.3,2.4,4.9,3.6C334.7,475.1,334.2,471.8,333.7,468.2z"/>
			<path class="st1" d="M249.9,494.2l1-1.2c1.1-1.3,2.3-2.7,3.7-4.1c-11.7-16-15.4-29.8-10.2-37c2.9-4.1,8.7-6.2,16.6-6.2
				c3.5,0,7.5,0.4,11.8,1.3c0.1-0.3,0.2-0.7,0.3-1l1.8-5.6c-17.3-3.6-30.1-1-36.2,7.5c-6.3,8.9-4.2,22.6,6,38.8
				C246.3,489.2,248.1,491.7,249.9,494.2z"/>
			<path class="st1" d="M334.9,522.3c-1.6,1.2-3.1,2.4-4.8,3.5c-6.3,4.5-12.4,8.4-18.4,11.8c-6-3.4-12.2-7.3-18.4-11.8
				c-1.6-1.1-3.1-2.3-4.6-3.4c0.3,2.5,0.6,5.9,1.2,9.4c4.9,3.4,9.8,6.6,14.7,9.6c-3.9,2-7.7,3.7-11.3,5.2c0,0.1,0.1,0.2,0.1,0.3
				l2.2,6.2c5.3-2.2,10.7-4.7,16.2-7.6c5.5,2.9,10.9,5.5,16.3,7.7l2.2-6.2c0-0.1,0-0.1,0.1-0.2c-3.7-1.5-7.5-3.3-11.5-5.2
				c5-2.9,10-6.2,14.9-9.7C334.3,528.2,334.7,524.8,334.9,522.3z"/>
			<path class="st1" d="M350.8,447c4.3-0.8,8.2-1.3,11.7-1.3c7.9,0,13.7,2.1,16.6,6.2c5.1,7.2,1.5,21-10.2,36.9
				c1.4,1.4,2.6,2.8,3.7,4.2l0.9,1.1c1.9-2.5,3.6-5,5.1-7.4c10.2-16.1,12.3-29.9,6-38.8c-6-8.5-18.8-11.1-36-7.5l1.8,5.6
				C350.6,446.4,350.7,446.7,350.8,447z"/>
			<path class="st1" d="M272.8,553c-13.9,2.7-24.2,0.9-28.4-4.9c-5.1-7.2-1.4-21.1,10.4-37.2c-2-2.1-3.3-3.5-3.4-3.7l-1.3-1.4
				c-1.9,2.5-3.6,5-5.2,7.5c-10.2,16.1-12.3,29.9-6,38.8c4.3,6,11.9,9.1,22.2,9.1c4.3,0,9-0.5,14.2-1.6l-1.9-5.4
				C273,553.7,272.9,553.3,272.8,553z"/>
		</g>
		<g>
			<linearGradient id="SVGID_1_" gradientUnits="userSpaceOnUse" x1="293.9465" y1="569.0511" x2="363.6063" y2="466.7456">
				<stop  offset="0" style="stop-color:#EF4136"/>
				<stop  offset="1" style="stop-color:#FBB040"/>
			</linearGradient>
			<path class="st2" d="M368.8,500l-1.8-2.2l-0.1-0.1c-0.8-1-1.7-2-2.7-3c-1.1-1.1-2.2-2.3-3.3-3.5c-4.5-4.5-9.4-8.9-11.5-10.8
				c0,0,0,0,0,0c0-0.1,0-0.2,0-0.3c-0.3-2.9-1-9.1-2.2-15.9c-0.9-5.2-2.1-10.7-3.6-15.6c0-0.1-0.1-0.3-0.1-0.4c0,0,0,0,0,0l-6.4,2.1
				l-0.1,0l-0.1,0c0,0.1,0.1,0.2,0.1,0.3c0.4,1.4,0.8,2.8,1.2,4.3c0,0,0,0,0,0.1c1.6,6.4,2.8,13.7,3.5,19.1c0.6,4.8,0.9,8.2,0.9,8.3
				l0.1,1.4l0,0l0.2,0.2l0.8,0.7c0.1,0,2.8,2.4,6.2,5.6c3,2.8,6.7,6.3,9.5,9.4c-1.7,1.8-4.3,4.6-7.1,7.4c-0.8,0.8-1.6,1.6-2.4,2.5
				c-2.3,2.3-4.5,4.4-6.5,6.2l-0.8,0.7l-0.2,0.2l-0.1,1.4c0,0.1-0.2,3.1-0.7,7.4c-0.2,2.1-0.5,4.4-0.9,6.9
				c-0.8,5.2-1.9,10.9-3.5,15.6c-0.1,0.3-0.2,0.6-0.3,0.9c0,0.1,0,0.1-0.1,0.2l0.1,0l6.4,2.3c0,0,0-0.1,0-0.1c0,0,0,0,0,0
				c0-0.1,0.1-0.2,0.1-0.4c2.3-6.5,3.7-14.7,4.6-21.2c0.6-4.3,0.9-7.9,1.1-9.8c0,0,0.1-0.1,0.2-0.1c3-2.8,6.4-6.2,9.4-9.3
				c2.1-2.2,4-4.2,5.4-5.7c1.3-1.4,2.2-2.4,2.5-2.7c0-0.1,0.1-0.1,0.1-0.1L368.8,500L368.8,500z"/>
			<linearGradient id="SVGID_2_" gradientUnits="userSpaceOnUse" x1="253.9068" y1="541.7882" x2="323.5666" y2="439.4826">
				<stop  offset="0" style="stop-color:#EF4136"/>
				<stop  offset="1" style="stop-color:#FBB040"/>
			</linearGradient>
			<path class="st3" d="M268.5,495c1.6-1.6,3.3-3.2,4.8-4.6c1.4-1.3,2.6-2.4,3.7-3.3c1.5-1.3,2.4-2.2,2.5-2.2l1.1-0.9l0.1-1.4
				c0-0.1,0.3-3.4,0.9-8.2c0.9-6.7,2.4-16.2,4.8-23.5c0-0.1,0.1-0.2,0.1-0.3l-6.5-2.1l0,0l-0.1,0c0,0.1-0.1,0.3-0.1,0.4
				c-3.6,11.4-5.4,27.1-5.8,31.8c-2.6,2.3-9.6,8.6-14.8,14.2c-1,1-1.9,2.1-2.7,3l-1.8,2.2l-0.1,0.1l0,0l2,2.2
				c0.1,0.1,1.1,1.2,2.7,2.9c0.3,0.3,0.6,0.6,0.9,1c0.4,0.4,0.8,0.8,1.2,1.2c3.6,3.8,8.6,9,12.8,12.8c0,0,0,0,0,0
				c0.1,0.7,0.1,1.7,0.3,2.9c0.6,6.5,2.2,19,5.4,28.1c0.1,0.1,0.1,0.3,0.2,0.4l0.1,0l6.4-2.3c0,0,0,0,0,0c0,0,0-0.1,0-0.1
				c-2.4-6.9-3.9-16.2-4.7-22.8c0-0.2-0.1-0.5-0.1-0.7c-0.5-4.3-0.7-7.2-0.7-7.3l-0.1-1.4l-0.1-0.1l-0.9-0.8
				c-1.9-1.7-4.2-3.9-6.4-6.1c-1.5-1.5-3-3-4.4-4.5c-2.1-2.1-3.9-4.1-5.2-5.5c0,0,0,0,0,0C265.2,498.3,266.8,496.6,268.5,495z"/>
		</g>
		<linearGradient id="SVGID_3_" gradientUnits="userSpaceOnUse" x1="260.9937" y1="546.6136" x2="330.6534" y2="444.308">
			<stop  offset="0" style="stop-color:#EF4136"/>
			<stop  offset="1" style="stop-color:#FBB040"/>
		</linearGradient>
		<rect x="295.2" y="478.7" class="st4" width="14.3" height="14.3"/>
		<linearGradient id="SVGID_4_" gradientUnits="userSpaceOnUse" x1="280.9833" y1="560.2245" x2="350.643" y2="457.9189">
			<stop  offset="0" style="stop-color:#EF4136"/>
			<stop  offset="1" style="stop-color:#FBB040"/>
		</linearGradient>
		<rect x="303.1" y="505.8" class="st5" width="17.8" height="17.8"/>
		<linearGradient id="SVGID_5_" gradientUnits="userSpaceOnUse" x1="277.1375" y1="557.6059" x2="346.7972" y2="455.3004">
			<stop  offset="0" style="stop-color:#EF4136"/>
			<stop  offset="1" style="stop-color:#FBB040"/>
		</linearGradient>
		<rect x="316.7" y="487.1" class="st6" width="10" height="10"/>
		<linearGradient id="SVGID_6_" gradientUnits="userSpaceOnUse" x1="263.9116" y1="548.6005" x2="333.5714" y2="446.2949">
			<stop  offset="0" style="stop-color:#EF4136"/>
			<stop  offset="1" style="stop-color:#FBB040"/>
		</linearGradient>
		<rect x="290.6" y="501.1" class="st7" width="6.7" height="6.7"/>
		<linearGradient id="SVGID_7_" gradientUnits="userSpaceOnUse" x1="291.8926" y1="567.6527" x2="361.5524" y2="465.3471">
			<stop  offset="0" style="stop-color:#EF4136"/>
			<stop  offset="1" style="stop-color:#FBB040"/>
		</linearGradient>
		<rect x="330.3" y="502.9" class="st8" width="6.7" height="6.7"/>
	</g>
	<g>
		<g>
			<g>
				<path class="st1" d="M458.6,451.3c-1.8-3-6.8-5.9-12.5-5.9c-7.4,0-10.9,3.1-10.9,7c0,4.6,5.4,5.9,11.8,6.6
					c11,1.4,21.3,4.2,21.3,16.8c0,11.8-10.4,16.8-22.2,16.8c-10.8,0-19.1-3.3-23-13l8.3-4.3c2.3,5.8,8.4,8.4,14.8,8.4
					c6.3,0,12.1-2.2,12.1-7.9c0-5-5.2-7-12.2-7.8c-10.8-1.3-20.7-4.1-20.7-16c0-10.9,10.7-15.3,20.4-15.4c8.2,0,16.7,2.3,20.7,10.5
					L458.6,451.3z"/>
				<path class="st1" d="M513.6,472.8c0,10.7-7.3,19.4-19.4,19.4s-19.3-8.7-19.3-19.4c0-10.6,7.4-19.4,19.2-19.4
					C506,453.4,513.6,462.2,513.6,472.8z M484.1,472.8c0,5.7,3.4,10.9,10.1,10.9c6.7,0,10.1-5.3,10.1-10.9c0-5.6-3.9-11-10.1-11
					C487.6,461.8,484.1,467.2,484.1,472.8z"/>
				<path class="st1" d="M522.9,491.3v-28.6H516v-8.1h6.9v-2.5c0-9.9,6.7-14.5,14.2-14.5c3.2,0,6.6,1.1,9.6,3l-3.4,6.9
					c-2-1.3-3.8-2-5.7-2c-3.2,0-5.6,2.1-5.6,6.6v2.5h10.9v8.1h-10.9v28.6H522.9z"/>
				<path class="st1" d="M563.3,443.7v10.6h10.2v7.9h-10.3v16.1c0,3.5,2,5.3,4.8,5.3c1.4,0,3.1-0.5,4.4-1.1l2.6,7.8
					c-2.6,1.1-4.8,1.5-7.6,1.6c-8.1,0.3-13.3-4.3-13.3-13.6v-16.1h-6.9v-7.9h6.9v-9.6L563.3,443.7z"/>
				<path class="st1" d="M614.5,454.1l8.1,28l8.5-28h10.2l-13,37.4h-10.7l-3.8-11l-3.3-12.4l-3.3,12.4l-3.8,11h-10.7l-13-37.4h10.2
					l8.5,28l8.1-28H614.5z"/>
				<path class="st1" d="M678.5,454.2h8.8v37.2h-8.7l-0.5-5.4c-2.1,4.4-7.9,6.5-12.1,6.6c-11,0.1-19.1-6.7-19.1-19.7
					c0-12.8,8.5-19.5,19.4-19.4c5,0,9.7,2.3,11.8,6L678.5,454.2z M656.2,472.7c0,7.1,4.9,11.3,11,11.3c14.5,0,14.5-22.5,0-22.5
					C661.1,461.5,656.2,465.6,656.2,472.7z"/>
				<path class="st1" d="M703.6,454.2l0.7,4.3c2.9-4.6,6.7-5.3,10.5-5.3c3.8,0,7.5,1.5,9.6,3.5l-4.1,8c-1.9-1.6-3.6-2.4-6.6-2.4
					c-4.8,0-9.3,2.6-9.3,9.4v19.6h-9.2v-37.2H703.6z"/>
				<path class="st1" d="M735.7,476c0.6,4.6,4.6,7.9,11.1,7.9c3.4,0,7.8-1.3,9.9-3.5l5.9,5.8c-3.9,4.1-10.3,6-16,6
					c-12.8,0-20.4-7.9-20.4-19.8c0-11.3,7.7-19.4,19.7-19.4c12.4,0,20.2,7.7,18.8,23H735.7z M755.9,468.4c-0.6-4.8-4.4-7.2-9.6-7.2
					c-5,0-9,2.4-10.4,7.2H755.9z"/>
			</g>
		</g>
		<g>
			<linearGradient id="SVGID_8_" gradientUnits="userSpaceOnUse" x1="538.1259" y1="538.1917" x2="613.9401" y2="497.0086">
				<stop  offset="0" style="stop-color:#EF4136"/>
				<stop  offset="1" style="stop-color:#FBB040"/>
			</linearGradient>
			<rect x="576.2" y="513" class="st9" width="5.9" height="5.9"/>
			<linearGradient id="SVGID_9_" gradientUnits="userSpaceOnUse" x1="514.623" y1="545.8091" x2="652.1575" y2="471.099">
				<stop  offset="0" style="stop-color:#EF4136"/>
				<stop  offset="1" style="stop-color:#FBB040"/>
			</linearGradient>
			<rect x="583.6" y="500.1" class="st10" width="10.7" height="10.7"/>
			<linearGradient id="SVGID_10_" gradientUnits="userSpaceOnUse" x1="527.6121" y1="529.1481" x2="615.0251" y2="481.6645">
				<stop  offset="0" style="stop-color:#EF4136"/>
				<stop  offset="1" style="stop-color:#FBB040"/>
			</linearGradient>
			<rect x="571.5" y="500.1" class="st11" width="6.8" height="6.8"/>
			<g>
				<linearGradient id="SVGID_11_" gradientUnits="userSpaceOnUse" x1="417.171" y1="538.6718" x2="687.8055" y2="455.6621">
					<stop  offset="0" style="stop-color:#EF4136"/>
					<stop  offset="1" style="stop-color:#FBB040"/>
				</linearGradient>
				<path class="st12" d="M427.1,544.4v18.2H423v-52.8c7.7,0,15.4,0,23.1,0c22.9,0,22.9,34.5,0,34.5H427.1z M427.1,513.6v27.1h19.1
					c17.6,0,17.6-27.1,0-27.1H427.1z"/>
				<linearGradient id="SVGID_12_" gradientUnits="userSpaceOnUse" x1="425.2854" y1="565.127" x2="695.9199" y2="482.1173">
					<stop  offset="0" style="stop-color:#EF4136"/>
					<stop  offset="1" style="stop-color:#FBB040"/>
				</linearGradient>
				<path class="st13" d="M505.8,525.4c0,12.4,0,24.8,0,37.2h-3.7v-7.9c-3.6,5.8-9.2,8.5-15.2,8.5c-10.4,0-18.9-7.8-18.9-19.2
					c0-11.4,8.5-19.1,18.9-19.1c6,0,12.1,2.8,15.2,8.6v-8.1H505.8z M471.7,544c0,9.3,6.8,15.6,15.2,15.6c20.7,0,20.7-31.1,0-31.1
					C478.5,528.5,471.7,534.7,471.7,544z"/>
				<linearGradient id="SVGID_13_" gradientUnits="userSpaceOnUse" x1="427.3138" y1="571.74" x2="697.9482" y2="488.7303">
					<stop  offset="0" style="stop-color:#EF4136"/>
					<stop  offset="1" style="stop-color:#FBB040"/>
				</linearGradient>
				<path class="st14" d="M519.3,525.4l0.2,6.6c2.3-5,7.6-7,12.4-7c2.8-0.1,5.5,0.7,8,2.2l-1.7,3c-2-1.2-4.1-1.7-6.3-1.7
					c-6.9,0.1-12.3,5.7-12.3,12.4v21.7h-3.7v-37.2H519.3z"/>
				<linearGradient id="SVGID_14_" gradientUnits="userSpaceOnUse" x1="429.3988" y1="578.5378" x2="700.0333" y2="495.5281">
					<stop  offset="0" style="stop-color:#EF4136"/>
					<stop  offset="1" style="stop-color:#FBB040"/>
				</linearGradient>
				<path class="st15" d="M556.2,514.2v11.2h12.7v3.1h-12.7v22.7c0,5,1.1,8.6,6.9,8.6c1.8,0,3.8-0.6,5.7-1.5l1.3,3
					c-2.3,1.1-4.7,1.9-7,1.9c-7.9,0-10.5-4.7-10.5-12v-22.7h-7.9v-3.1h7.9v-10.9L556.2,514.2z"/>
				<linearGradient id="SVGID_15_" gradientUnits="userSpaceOnUse" x1="432.5863" y1="588.9301" x2="703.2208" y2="505.9203">
					<stop  offset="0" style="stop-color:#EF4136"/>
					<stop  offset="1" style="stop-color:#FBB040"/>
				</linearGradient>
				<path class="st16" d="M577.4,525.3v37.4h3.7v-37.4H577.4z"/>
				<linearGradient id="SVGID_16_" gradientUnits="userSpaceOnUse" x1="435.1129" y1="597.1672" x2="705.7474" y2="514.1575">
					<stop  offset="0" style="stop-color:#EF4136"/>
					<stop  offset="1" style="stop-color:#FBB040"/>
				</linearGradient>
				<path class="st17" d="M622.2,557.4c-3.8,3.8-8.7,5.6-13.6,5.6c-10.5,0-19.1-7.2-19.1-19c0-11.8,8.4-19,19.1-19
					c4.9,0,9.8,1.9,13.6,5.6l-2.4,2.3c-3-3-7.2-4.4-11.2-4.4c-8.4,0-15.5,5.5-15.5,15.5c0,10,7.1,15.5,15.5,15.5
					c4,0,8.1-1.6,11.1-4.6L622.2,557.4z"/>
				<linearGradient id="SVGID_17_" gradientUnits="userSpaceOnUse" x1="434.9282" y1="596.5652" x2="705.5627" y2="513.5554">
					<stop  offset="0" style="stop-color:#EF4136"/>
					<stop  offset="1" style="stop-color:#FBB040"/>
				</linearGradient>
				<path class="st18" d="M633.4,509.9v52.8h-3.7v-52.8H633.4z"/>
				<linearGradient id="SVGID_18_" gradientUnits="userSpaceOnUse" x1="439.6053" y1="611.8138" x2="710.2398" y2="528.8041">
					<stop  offset="0" style="stop-color:#EF4136"/>
					<stop  offset="1" style="stop-color:#FBB040"/>
				</linearGradient>
				<path class="st19" d="M641.6,544c0-11.2,8.4-19.2,18.9-19.2c10.5,0,19.8,6.4,18.4,21h-33.5c0.8,8.7,7.5,13.8,15.1,13.8
					c4.9,0,10.6-2,13.4-5.7l2.6,2.1c-3.6,4.7-10.1,7.2-16.1,7.2C650.1,563.2,641.6,555.8,641.6,544z M675.6,542.5
					c-0.1-9.2-6.1-14.3-15.1-14.3c-7.7,0-14.3,5.2-15.1,14.3H675.6z"/>
				<linearGradient id="SVGID_19_" gradientUnits="userSpaceOnUse" x1="443.2128" y1="623.5753" x2="713.8474" y2="540.5656">
					<stop  offset="0" style="stop-color:#EF4136"/>
					<stop  offset="1" style="stop-color:#FBB040"/>
				</linearGradient>
				<path class="st20" d="M714,532.2c-3.8-3.3-7.5-3.9-11.6-3.9c-5.8-0.1-11.4,2.1-11.2,6.9c0.2,5,6.6,6,11.3,6.8
					c6.6,1.1,15.8,2.3,15.4,10.9c-0.2,8.2-8.7,10.4-15.3,10.4c-6.6,0-13-2.5-16.3-7.5l2.7-2.4c3.1,4.4,8.7,6.3,13.6,6.3
					c4.5,0,11.4-1.2,11.6-7.1c0.2-5.4-6-6.4-12.1-7.4c-7.2-1.2-14.4-2.6-14.5-10c-0.1-7.3,7.2-10.5,14.8-10.4c5.4,0,10.2,1.5,13.9,5
					L714,532.2z"/>
			</g>
		</g>
	</g>
</g>
</svg>
