<?xml version="1.0" encoding="utf-8"?>
<!-- Generator: Adobe Illustrator 24.3.0, SVG Export Plug-In . SVG Version: 6.00 Build 0)  -->
<svg version="1.1" id="Layer_1" xmlns="http://www.w3.org/2000/svg" xmlns:xlink="http://www.w3.org/1999/xlink" x="0px" y="0px"
	 viewBox="0 0 1000 1000" style="enable-background:new 0 0 1000 1000;" xml:space="preserve">
<style type="text/css">
	.st0{fill:none;}
	.st1{fill:#002F49;}
	.st2{fill:url(#SVGID_1_);}
	.st3{fill:url(#SVGID_2_);}
	.st4{fill:url(#SVGID_3_);}
	.st5{fill:url(#SVGID_4_);}
	.st6{fill:url(#SVGID_5_);}
	.st7{fill:url(#SVGID_6_);}
	.st8{fill:url(#SVGID_7_);}
	.st9{fill:url(#SVGID_8_);}
	.st10{fill:url(#SVGID_9_);}
	.st11{fill:url(#SVGID_10_);}
	.st12{fill:url(#SVGID_11_);}
	.st13{fill:url(#SVGID_12_);}
	.st14{fill:url(#SVGID_13_);}
	.st15{fill:url(#SVGID_14_);}
	.st16{fill:url(#SVGID_15_);}
	.st17{fill:url(#SVGID_16_);}
	.st18{fill:url(#SVGID_17_);}
	.st19{fill:url(#SVGID_18_);}
	.st20{fill:url(#SVGID_19_);}
	.st21{fill:url(#SVGID_20_);}
	.st22{fill:url(#SVGID_21_);}
	.st23{fill:url(#SVGID_22_);}
	.st24{fill:url(#SVGID_23_);}
	.st25{fill:url(#SVGID_24_);}
	.st26{fill:url(#SVGID_25_);}
	.st27{fill:url(#SVGID_26_);}
	.st28{fill:url(#SVGID_27_);}
	.st29{fill:url(#SVGID_28_);}
	.st30{fill:url(#SVGID_29_);}
	.st31{fill:url(#SVGID_30_);}
	.st32{fill:url(#SVGID_31_);}
	.st33{fill:url(#SVGID_32_);}
	.st34{fill:url(#SVGID_33_);}
	.st35{fill:url(#SVGID_34_);}
	.st36{fill:url(#SVGID_35_);}
	.st37{fill:url(#SVGID_36_);}
	.st38{fill:url(#SVGID_37_);}
	.st39{fill:url(#SVGID_38_);}
	.st40{fill:url(#SVGID_39_);}
	.st41{fill:url(#SVGID_40_);}
	.st42{fill:url(#SVGID_41_);}
	.st43{fill:url(#SVGID_42_);}
	.st44{fill:url(#SVGID_43_);}
	.st45{fill:url(#SVGID_44_);}
	.st46{fill:url(#SVGID_45_);}
	.st47{fill:url(#SVGID_46_);}
	.st48{fill:url(#SVGID_47_);}
	.st49{fill:url(#SVGID_48_);}
	.st50{fill:url(#SVGID_49_);}
	.st51{fill:url(#SVGID_50_);}
	.st52{fill:url(#SVGID_51_);}
	.st53{fill:url(#SVGID_52_);}
	.st54{fill:url(#SVGID_53_);}
	.st55{fill:url(#SVGID_54_);}
	.st56{fill:url(#SVGID_55_);}
	.st57{fill:url(#SVGID_56_);}
	.st58{fill:url(#SVGID_57_);}
	.st59{fill:url(#SVGID_58_);}
	.st60{fill:url(#SVGID_59_);}
	.st61{fill:url(#SVGID_60_);}
	.st62{fill:url(#SVGID_61_);}
	.st63{fill:url(#SVGID_62_);}
	.st64{fill:url(#SVGID_63_);}
	.st65{fill:url(#SVGID_64_);}
	.st66{fill:url(#SVGID_65_);}
	.st67{fill:url(#SVGID_66_);}
	.st68{fill:url(#SVGID_67_);}
	.st69{fill:url(#SVGID_68_);}
	.st70{fill:url(#SVGID_69_);}
	.st71{fill:url(#SVGID_70_);}
	.st72{fill:url(#SVGID_71_);}
	.st73{fill:url(#SVGID_72_);}
	.st74{fill:url(#SVGID_73_);}
	.st75{fill:url(#SVGID_74_);}
	.st76{fill:url(#SVGID_75_);}
	.st77{fill:url(#SVGID_76_);}
	.st78{fill:url(#SVGID_77_);}
	.st79{fill:url(#SVGID_78_);}
	.st80{fill:url(#SVGID_79_);}
	.st81{fill:url(#SVGID_80_);}
	.st82{fill:url(#SVGID_81_);}
	.st83{fill:url(#SVGID_82_);}
	.st84{fill:url(#SVGID_83_);}
</style>
<g>
	<g>
		<path class="st0" d="M425.6,488.1c-15.4,20.9-20.2,39.1-13.5,48.5c5.5,7.7,18.9,10,37.1,6.4c-4.3-12.7-6.4-29.1-7.2-38.3
			C436.1,499.1,429.7,492.5,425.6,488.1z"/>
		<path class="st0" d="M490.6,419.9c-5-2.5-9.9-4.8-14.8-6.8c-1.8,5.8-3.2,12.7-4.3,19.1C477.9,427.8,484.3,423.7,490.6,419.9z"/>
		<path class="st0" d="M509.3,527.9c5.1,2.6,10.1,4.9,15,6.8c2-5.7,3.4-12.9,4.5-19.5C522.3,519.8,515.8,524,509.3,527.9z"/>
		<path class="st0" d="M558.3,504.6c-0.9,9.3-2.9,25.6-7.3,38.4c18.1,3.5,31.5,1.2,36.9-6.5c6.7-9.4,1.9-27.5-13.4-48.4
			C570.3,492.6,564,499.2,558.3,504.6z"/>
		<path class="st0" d="M528.6,432.4c-1.1-6.5-2.5-13.5-4.3-19.3c-4.9,2-9.9,4.3-14.9,6.8C515.8,423.7,522.3,427.9,528.6,432.4z"/>
		<path class="st0" d="M521.2,543.1c-7-2.8-14.1-6.2-21.2-10c-7.1,3.8-14.2,7.1-21.1,10l0.3,0.9l-9.3,3.3
			c8,21.9,19.3,34.6,30.1,34.6c10.8,0,22.1-12.7,30.1-34.6l-9.1-3.3L521.2,543.1z"/>
		<path class="st0" d="M471.5,515.4c1,6.5,2.5,13.6,4.4,19.2c4.8-2,9.7-4.2,14.8-6.8C484.3,524.1,477.8,519.9,471.5,515.4z"/>
		<path class="st0" d="M530.3,503c0.4-3.5,0.5-5.8,0.5-5.8l0.4-5.7l4.3-3.8c1.8-1.6,3.8-3.5,5.8-5.5c0.1-2.7,0.1-5.4,0.1-8.2
			c0-2.7,0-5.3-0.1-7.9c-3.1-2.8-5.3-4.8-5.4-4.8l-4.3-3.7l-0.5-5.7c0-0.1-0.2-2.8-0.7-7c-2.1-1.6-4.2-3.1-6.4-4.7
			c-7.9-5.7-16-10.8-24-15.3c-8,4.5-16.1,9.6-24,15.3c-2.1,1.5-4.1,3-6.2,4.5c-0.5,4.3-0.8,7.1-0.8,7.1l-0.5,5.7l-4.3,3.7
			c-0.1,0-2.4,2-5.6,5c-0.1,2.5-0.1,5.1-0.1,7.7c0,2.7,0,5.4,0.1,8.1c2.1,2.1,4.2,4.1,6,5.7l4.3,3.8l0.4,5.7c0,0.1,0.2,2.4,0.5,6
			c2,1.5,4,3,6,4.4c8.2,5.8,16.2,10.9,24,15.3c7.8-4.4,15.9-9.5,24-15.3C526.2,506.1,528.2,504.5,530.3,503z"/>
		<path class="st0" d="M478.6,404.5c7,2.8,14.2,6.2,21.4,10.1c7.3-3.9,14.5-7.3,21.5-10.1l-0.4-1.3l8.9-2.9
			c-8-21.7-19.2-34.3-30-34.3c-10.8,0-21.9,12.6-30,34.3l9.1,3L478.6,404.5z"/>
		<path class="st0" d="M441.7,443.8c1-9.3,3.3-25.8,7.4-39c-5.6-1.1-10.8-1.7-15.4-1.7c-10.3,0-17.8,2.7-21.6,8.1
			c-6.7,9.4-1.9,27.5,13.4,48.3C430.9,453.7,437.4,447.7,441.7,443.8z"/>
		<path class="st0" d="M574.7,459.4c15.2-20.8,20-38.8,13.3-48.2c-3.8-5.3-11.3-8.1-21.6-8.1c-4.6,0-9.7,0.6-15.3,1.7
			c4.1,13.2,6.4,29.7,7.4,39C562.8,447.7,569.2,453.6,574.7,459.4z"/>
		<g>
			<path class="st1" d="M458.7,466.2c-2.4,2.2-5.2,4.8-8.1,7.6c2.5,2.6,5.3,5.5,8.1,8.1c-0.1-2.6-0.1-5.3-0.1-8.1
				C458.6,471.3,458.6,468.7,458.7,466.2z"/>
			<path class="st1" d="M500,365.9c10.8,0,22,12.6,30,34.3l8.5-2.8c-0.6-1.6-1.2-3.3-1.9-4.8c-9.4-23.1-22.4-35.7-36.6-35.7
				s-27.2,12.7-36.6,35.7c-0.6,1.6-1.2,3.2-1.8,4.8l8.5,2.8C478.1,378.5,489.2,365.9,500,365.9z"/>
			<path class="st1" d="M541.3,466c0.1,2.6,0.1,5.2,0.1,7.9c0,2.8,0,5.5-0.1,8.2c2.8-2.7,5.7-5.7,8.3-8.3
				C546.6,470.9,543.7,468.2,541.3,466z"/>
			<path class="st1" d="M500,581.9c-10.8,0-22-12.7-30.1-34.6l-8.4,3c0.6,1.6,1.2,3.2,1.8,4.8c9.4,23.1,22.4,35.7,36.6,35.7
				s27.2-12.7,36.6-35.7c0.6-1.6,1.3-3.2,1.9-4.9l-8.4-3C522.1,569.1,510.8,581.9,500,581.9z"/>
			<path class="st1" d="M580.7,481.5l-1.6,1.7c-0.2,0.2-2,2.1-4.6,4.9c15.3,20.9,20.1,39,13.4,48.4c-5.4,7.6-18.8,10-36.9,6.5
				c-0.2,0.5-0.3,1-0.5,1.5l-2.5,7.1c6.6,1.4,12.8,2.1,18.3,2.1c13.4,0,23.4-4,29-11.8c8.2-11.6,5.5-29.5-7.9-50.6
				C585.4,488,583.1,484.8,580.7,481.5z"/>
			<path class="st1" d="M528.6,432.4c-6.4-4.5-12.8-8.7-19.3-12.5c5-2.5,10-4.8,14.9-6.8c-0.1-0.3-0.2-0.6-0.3-0.9l-2.5-7.7
				c-7.1,2.9-14.3,6.3-21.5,10.1c-7.2-3.9-14.3-7.2-21.4-10.1l-2.5,7.6c-0.1,0.3-0.2,0.6-0.3,1c4.9,2,9.8,4.3,14.8,6.8
				c-6.4,3.8-12.8,7.9-19.1,12.4c-0.8,4.7-1.4,9-1.8,12.4c2-1.5,4-3,6.2-4.5c7.9-5.7,16-10.8,24-15.3c8,4.5,16.1,9.6,24,15.3
				c2.2,1.6,4.3,3.1,6.4,4.7C530,441.4,529.4,437.1,528.6,432.4z"/>
			<path class="st1" d="M419.4,466.3l1.3-1.5c1.4-1.7,3.1-3.5,4.8-5.3c-15.3-20.8-20-38.9-13.4-48.3c3.8-5.3,11.3-8.1,21.6-8.1
				c4.6,0,9.8,0.6,15.4,1.7c0.1-0.4,0.3-0.9,0.4-1.3l2.4-7.3c-22.6-4.7-39.3-1.3-47.2,9.8c-8.2,11.6-5.5,29.5,7.9,50.6
				C414.6,459.8,416.9,463,419.4,466.3z"/>
			<path class="st1" d="M530.3,503c-2,1.5-4.1,3.1-6.2,4.6c-8.2,5.8-16.2,10.9-24,15.3c-7.8-4.4-15.9-9.5-24-15.3
				c-2.1-1.5-4.1-3-6-4.4c0.3,3.3,0.8,7.6,1.6,12.3c6.3,4.5,12.8,8.7,19.2,12.5c-5.1,2.6-10,4.8-14.8,6.8c0,0.1,0.1,0.2,0.1,0.3
				l2.9,8.1c6.9-2.8,14-6.2,21.1-10c7.2,3.8,14.3,7.2,21.2,10l2.9-8.1c0-0.1,0.1-0.2,0.1-0.3c-4.8-2-9.8-4.3-15-6.8
				c6.5-3.8,13-8.1,19.4-12.6C529.4,510.6,529.9,506.3,530.3,503z"/>
			<path class="st1" d="M551,404.8c5.6-1.1,10.7-1.7,15.3-1.7c10.3,0,17.8,2.7,21.6,8.1c6.7,9.4,1.9,27.4-13.3,48.2
				c1.8,1.9,3.4,3.7,4.9,5.4l1.2,1.4c2.4-3.2,4.7-6.5,6.7-9.7c13.3-21,16.1-39,7.9-50.6c-7.9-11-24.5-14.5-47-9.8l2.4,7.3
				C550.8,403.9,550.9,404.3,551,404.8z"/>
			<path class="st1" d="M449.2,543c-18.2,3.6-31.6,1.2-37.1-6.4c-6.7-9.4-1.9-27.6,13.5-48.5c-2.6-2.7-4.3-4.6-4.5-4.8l-1.7-1.8
				c-2.5,3.3-4.8,6.5-6.8,9.8c-13.3,21-16.1,39-7.9,50.6c5.6,7.8,15.6,11.8,29,11.8c5.6,0,11.8-0.7,18.5-2.1l-2.5-7
				C449.5,544,449.3,543.5,449.2,543z"/>
		</g>
		<g>
			<linearGradient id="SVGID_1_" gradientUnits="userSpaceOnUse" x1="476.8015" y1="563.9765" x2="567.7015" y2="430.4765">
				<stop  offset="0" style="stop-color:#EF4136"/>
				<stop  offset="1" style="stop-color:#FBB040"/>
			</linearGradient>
			<path class="st2" d="M574.5,473.9l-2.4-2.8l-0.1-0.1c-1-1.2-2.2-2.6-3.5-3.9c-1.4-1.5-2.9-3-4.4-4.5c-5.9-5.9-12.3-11.6-15-14
				c0,0,0,0,0,0c0-0.1,0-0.2,0-0.4c-0.4-3.8-1.3-11.8-2.8-20.8c-1.2-6.8-2.7-14-4.7-20.3c-0.1-0.2-0.1-0.3-0.2-0.5c0,0,0,0,0,0
				l-8.4,2.7l-0.1,0l-0.1,0c0,0.1,0.1,0.3,0.1,0.4c0.6,1.8,1.1,3.6,1.6,5.6c0,0,0,0.1,0,0.1c2.2,8.4,3.6,17.8,4.6,24.9
				c0.8,6.3,1.2,10.7,1.2,10.8l0.2,1.8l0,0l0.3,0.3l1,0.9c0.1,0.1,3.6,3.1,8.1,7.3c4,3.7,8.7,8.2,12.5,12.3c-2.2,2.4-5.6,6-9.3,9.7
				c-1,1.1-2.1,2.1-3.2,3.2c-2.9,2.9-5.9,5.8-8.5,8.1l-1.1,1l-0.3,0.3l-0.1,1.8c0,0.1-0.3,4-0.9,9.6c-0.3,2.7-0.7,5.8-1.2,9
				c-1,6.8-2.5,14.2-4.6,20.4c-0.1,0.4-0.3,0.8-0.4,1.2c0,0.1-0.1,0.2-0.1,0.3l0.1,0l8.4,3c0,0,0-0.1,0-0.1c0,0,0,0,0,0
				c0.1-0.2,0.1-0.3,0.2-0.5c3-8.5,4.8-19.1,6-27.7c0.8-5.7,1.2-10.4,1.4-12.8c0.1-0.1,0.1-0.1,0.2-0.2c3.9-3.6,8.4-8.1,12.3-12.1
				c2.7-2.8,5.2-5.4,7.1-7.4c1.7-1.8,2.9-3.1,3.3-3.5c0.1-0.1,0.1-0.1,0.1-0.1l2.7-2.9L574.5,473.9z"/>
			<linearGradient id="SVGID_2_" gradientUnits="userSpaceOnUse" x1="424.5532" y1="528.4006" x2="515.4532" y2="394.9007">
				<stop  offset="0" style="stop-color:#EF4136"/>
				<stop  offset="1" style="stop-color:#FBB040"/>
			</linearGradient>
			<path class="st3" d="M443.6,467.3c2.1-2.1,4.3-4.1,6.3-6c1.8-1.7,3.5-3.2,4.8-4.4c1.9-1.7,3.2-2.8,3.2-2.9l1.4-1.2l0.2-1.8
				c0-0.1,0.4-4.5,1.2-10.7c1.1-8.7,3.1-21.1,6.2-30.7c0-0.1,0.1-0.3,0.1-0.4l-8.4-2.8l0,0l-0.1,0c-0.1,0.2-0.1,0.3-0.2,0.5
				c-4.8,14.9-7,35.3-7.6,41.5c-3.4,3-12.5,11.2-19.3,18.5c-1.3,1.4-2.5,2.7-3.5,4l-2.4,2.9l-0.1,0.2l0,0l2.6,2.9
				c0.2,0.2,1.5,1.6,3.5,3.7c0.4,0.4,0.8,0.8,1.2,1.3c0.5,0.5,1,1,1.5,1.6c4.7,4.9,11.3,11.7,16.8,16.7c0,0,0,0,0.1,0.1
				c0.1,1,0.2,2.3,0.3,3.8c0.8,8.5,2.9,24.8,7,36.7c0.1,0.2,0.1,0.4,0.2,0.6l0.1,0l8.4-3c0,0,0,0,0,0c0-0.1,0-0.1-0.1-0.2
				c-3.2-9-5.1-21.2-6.1-29.8c0-0.3-0.1-0.6-0.1-0.9c-0.6-5.6-0.9-9.4-0.9-9.5l-0.1-1.8l-0.2-0.2l-1.2-1.1c-2.5-2.3-5.5-5.1-8.4-8
				c-2-2-3.9-4-5.8-5.8c-2.7-2.8-5.1-5.3-6.8-7.1c0,0,0,0,0,0C439.2,471.7,441.4,469.5,443.6,467.3z"/>
		</g>
		<linearGradient id="SVGID_3_" gradientUnits="userSpaceOnUse" x1="433.8009" y1="534.6974" x2="524.7009" y2="401.1974">
			<stop  offset="0" style="stop-color:#EF4136"/>
			<stop  offset="1" style="stop-color:#FBB040"/>
		</linearGradient>
		<rect x="478.5" y="446.1" class="st4" width="18.6" height="18.6"/>
		<linearGradient id="SVGID_4_" gradientUnits="userSpaceOnUse" x1="459.8856" y1="552.4584" x2="550.7856" y2="418.9585">
			<stop  offset="0" style="stop-color:#EF4136"/>
			<stop  offset="1" style="stop-color:#FBB040"/>
		</linearGradient>
		<rect x="488.8" y="481.4" class="st5" width="23.2" height="23.2"/>
		<linearGradient id="SVGID_5_" gradientUnits="userSpaceOnUse" x1="454.8672" y1="549.0414" x2="545.7672" y2="415.5414">
			<stop  offset="0" style="stop-color:#EF4136"/>
			<stop  offset="1" style="stop-color:#FBB040"/>
		</linearGradient>
		<rect x="506.6" y="457" class="st6" width="13.1" height="13.1"/>
		<linearGradient id="SVGID_6_" gradientUnits="userSpaceOnUse" x1="437.6086" y1="537.29" x2="528.5085" y2="403.79">
			<stop  offset="0" style="stop-color:#EF4136"/>
			<stop  offset="1" style="stop-color:#FBB040"/>
		</linearGradient>
		<rect x="472.4" y="475.3" class="st7" width="8.8" height="8.8"/>
		<linearGradient id="SVGID_7_" gradientUnits="userSpaceOnUse" x1="474.1214" y1="562.1516" x2="565.0214" y2="428.6516">
			<stop  offset="0" style="stop-color:#EF4136"/>
			<stop  offset="1" style="stop-color:#FBB040"/>
		</linearGradient>
		<rect x="524.2" y="477.7" class="st8" width="8.8" height="8.8"/>
	</g>
	<g>
		<linearGradient id="SVGID_8_" gradientUnits="userSpaceOnUse" x1="613.1348" y1="622.7076" x2="673.1398" y2="590.1124">
			<stop  offset="0" style="stop-color:#EF4136"/>
			<stop  offset="1" style="stop-color:#FBB040"/>
		</linearGradient>
		<rect x="643.2" y="602.8" class="st9" width="4.7" height="4.7"/>
		<linearGradient id="SVGID_9_" gradientUnits="userSpaceOnUse" x1="594.533" y1="628.7366" x2="703.3878" y2="569.6057">
			<stop  offset="0" style="stop-color:#EF4136"/>
			<stop  offset="1" style="stop-color:#FBB040"/>
		</linearGradient>
		<rect x="649.2" y="592.6" class="st10" width="8.4" height="8.4"/>
		<linearGradient id="SVGID_10_" gradientUnits="userSpaceOnUse" x1="604.8134" y1="615.5499" x2="673.9985" y2="577.9679">
			<stop  offset="0" style="stop-color:#EF4136"/>
			<stop  offset="1" style="stop-color:#FBB040"/>
		</linearGradient>
		<rect x="639.5" y="592.6" class="st11" width="5.4" height="5.4"/>
		<g>
			<path class="st1" d="M272.7,610.4c-1.4-2.4-5.4-4.7-9.9-4.7c-5.8,0-8.6,2.4-8.6,5.5c0,3.6,4.3,4.7,9.3,5.2
				c8.7,1.1,16.8,3.3,16.8,13.3c0,9.3-8.2,13.3-17.5,13.3c-8.5,0-15.1-2.6-18.2-10.3l6.6-3.4c1.8,4.6,6.7,6.6,11.8,6.6
				c5,0,9.6-1.7,9.6-6.3c0-3.9-4.1-5.5-9.7-6.1c-8.5-1-16.4-3.3-16.4-12.6c0-8.6,8.5-12.1,16.2-12.2c6.5,0,13.2,1.8,16.4,8.3
				L272.7,610.4z"/>
			<path class="st1" d="M316.3,627.4c0,8.5-5.8,15.3-15.3,15.3s-15.3-6.9-15.3-15.3c0-8.4,5.8-15.3,15.2-15.3
				C310.3,612,316.3,619,316.3,627.4z M293,627.4c0,4.5,2.7,8.6,8,8.6s8-4.2,8-8.6c0-4.4-3.1-8.7-8-8.7
				C295.7,618.7,293,623,293,627.4z"/>
			<path class="st1" d="M323.7,642.1v-22.6h-5.5v-6.4h5.5v-2c0-7.9,5.3-11.5,11.2-11.5c2.6,0,5.2,0.8,7.6,2.4l-2.7,5.4
				c-1.6-1-3-1.6-4.5-1.6c-2.5,0-4.4,1.7-4.4,5.2v2h8.6v6.4h-8.6v22.6H323.7z"/>
			<path class="st1" d="M355.6,604.4v8.4h8.1v6.3h-8.2v12.7c0,2.8,1.6,4.2,3.8,4.2c1.1,0,2.4-0.4,3.5-0.9l2,6.2
				c-2.1,0.8-3.8,1.2-6,1.3c-6.4,0.2-10.6-3.4-10.6-10.7V619h-5.5v-6.3h5.5v-7.6L355.6,604.4z"/>
			<path class="st1" d="M396.1,612.6l6.4,22.1l6.7-22.1h8.1l-10.3,29.6h-8.5l-3-8.7l-2.6-9.8l-2.6,9.8l-3,8.7h-8.5l-10.3-29.6h8.1
				l6.7,22.1l6.4-22.1H396.1z"/>
			<path class="st1" d="M446.8,612.6h7v29.4h-6.9l-0.4-4.3c-1.7,3.5-6.3,5.1-9.5,5.2c-8.7,0.1-15.2-5.3-15.2-15.6
				c0-10.1,6.7-15.4,15.3-15.4c3.9,0,7.7,1.8,9.4,4.8L446.8,612.6z M429.2,627.3c0,5.6,3.9,8.9,8.7,8.9c11.5,0,11.5-17.8,0-17.8
				C433,618.4,429.2,621.7,429.2,627.3z"/>
			<path class="st1" d="M466.7,612.6l0.5,3.4c2.3-3.6,5.3-4.2,8.3-4.2c3,0,6,1.2,7.6,2.8l-3.3,6.3c-1.5-1.3-2.9-1.9-5.2-1.9
				c-3.8,0-7.3,2-7.3,7.5v15.5h-7.3v-29.4H466.7z"/>
			<path class="st1" d="M492,629.9c0.5,3.6,3.6,6.3,8.8,6.3c2.7,0,6.2-1,7.9-2.7l4.7,4.6c-3.1,3.2-8.2,4.8-12.6,4.8
				c-10.1,0-16.2-6.3-16.2-15.7c0-8.9,6.1-15.4,15.6-15.4c9.8,0,16,6.1,14.9,18.2H492z M508,623.9c-0.5-3.8-3.5-5.7-7.6-5.7
				c-3.9,0-7.2,1.9-8.2,5.7H508z"/>
		</g>
		<g>
			<linearGradient id="SVGID_11_" gradientUnits="userSpaceOnUse" x1="517.4023" y1="623.0876" x2="731.6023" y2="557.3877">
				<stop  offset="0" style="stop-color:#EF4136"/>
				<stop  offset="1" style="stop-color:#FBB040"/>
			</linearGradient>
			<path class="st12" d="M525.3,627.6v14.4H522v-41.8c6.1,0,12.2,0,18.3,0c18.1,0,18.1,27.3,0,27.3H525.3z M525.3,603.3v21.4h15.1
				c13.9,0,13.9-21.4,0-21.4H525.3z"/>
			<linearGradient id="SVGID_12_" gradientUnits="userSpaceOnUse" x1="523.8246" y1="644.0262" x2="738.0246" y2="578.3263">
				<stop  offset="0" style="stop-color:#EF4136"/>
				<stop  offset="1" style="stop-color:#FBB040"/>
			</linearGradient>
			<path class="st13" d="M587.6,612.6c0,9.8,0,19.6,0,29.5h-2.9v-6.3c-2.9,4.6-7.3,6.7-12,6.7c-8.2,0-15-6.2-15-15.2
				c0-9,6.7-15.1,15-15.1c4.8,0,9.6,2.2,12,6.8v-6.4H587.6z M560.6,627.3c0,7.4,5.4,12.3,12,12.3c16.4,0,16.4-24.6,0-24.6
				C565.9,615,560.6,619.9,560.6,627.3z"/>
			<linearGradient id="SVGID_13_" gradientUnits="userSpaceOnUse" x1="525.43" y1="649.2603" x2="739.63" y2="583.5602">
				<stop  offset="0" style="stop-color:#EF4136"/>
				<stop  offset="1" style="stop-color:#FBB040"/>
			</linearGradient>
			<path class="st14" d="M598.3,612.6l0.1,5.2c1.8-4,6-5.5,9.8-5.5c2.2-0.1,4.4,0.5,6.3,1.7l-1.3,2.4c-1.6-1-3.3-1.4-5-1.4
				c-5.5,0.1-9.7,4.5-9.7,9.8v17.2h-2.9v-29.5H598.3z"/>
			<linearGradient id="SVGID_14_" gradientUnits="userSpaceOnUse" x1="527.0803" y1="654.6406" x2="741.2803" y2="588.9406">
				<stop  offset="0" style="stop-color:#EF4136"/>
				<stop  offset="1" style="stop-color:#FBB040"/>
			</linearGradient>
			<path class="st15" d="M627.5,603.7v8.9h10v2.4h-10v18c0,4,0.8,6.8,5.4,6.8c1.4,0,3-0.5,4.5-1.2l1,2.4c-1.8,0.9-3.7,1.5-5.5,1.5
				c-6.3,0-8.3-3.7-8.3-9.5v-18h-6.3v-2.4h6.3V604L627.5,603.7z"/>
			<linearGradient id="SVGID_15_" gradientUnits="userSpaceOnUse" x1="529.6031" y1="662.8657" x2="743.8031" y2="597.1657">
				<stop  offset="0" style="stop-color:#EF4136"/>
				<stop  offset="1" style="stop-color:#FBB040"/>
			</linearGradient>
			<path class="st16" d="M644.2,612.5v29.6h2.9v-29.6H644.2z"/>
			<linearGradient id="SVGID_16_" gradientUnits="userSpaceOnUse" x1="531.6028" y1="669.3853" x2="745.8028" y2="603.6852">
				<stop  offset="0" style="stop-color:#EF4136"/>
				<stop  offset="1" style="stop-color:#FBB040"/>
			</linearGradient>
			<path class="st17" d="M679.7,637.9c-3,3-6.9,4.4-10.7,4.4c-8.3,0-15.2-5.7-15.2-15c0-9.3,6.6-15,15.2-15c3.9,0,7.8,1.5,10.7,4.4
				l-1.9,1.8c-2.4-2.4-5.7-3.5-8.8-3.5c-6.7,0-12.3,4.4-12.3,12.3c0,7.9,5.6,12.3,12.3,12.3c3.2,0,6.4-1.3,8.8-3.6L679.7,637.9z"/>
			<linearGradient id="SVGID_17_" gradientUnits="userSpaceOnUse" x1="531.4567" y1="668.9088" x2="745.6566" y2="603.2087">
				<stop  offset="0" style="stop-color:#EF4136"/>
				<stop  offset="1" style="stop-color:#FBB040"/>
			</linearGradient>
			<path class="st18" d="M688.5,600.3v41.8h-2.9v-41.8H688.5z"/>
			<linearGradient id="SVGID_18_" gradientUnits="userSpaceOnUse" x1="535.1584" y1="680.9777" x2="749.3585" y2="615.2776">
				<stop  offset="0" style="stop-color:#EF4136"/>
				<stop  offset="1" style="stop-color:#FBB040"/>
			</linearGradient>
			<path class="st19" d="M695,627.3c0-8.8,6.7-15.2,15-15.2c8.3,0,15.7,5.1,14.6,16.6H698c0.6,6.9,5.9,10.9,12,10.9
				c3.9,0,8.4-1.6,10.6-4.5l2.1,1.7c-2.9,3.8-8,5.7-12.7,5.7C701.7,642.5,695,636.7,695,627.3z M721.9,626.1
				c-0.1-7.3-4.8-11.3-11.9-11.3c-6.1,0-11.3,4.1-12,11.3H721.9z"/>
			<linearGradient id="SVGID_19_" gradientUnits="userSpaceOnUse" x1="538.0137" y1="690.2865" x2="752.2137" y2="624.5865">
				<stop  offset="0" style="stop-color:#EF4136"/>
				<stop  offset="1" style="stop-color:#FBB040"/>
			</linearGradient>
			<path class="st20" d="M752.4,618c-3-2.6-5.9-3.1-9.2-3.1c-4.6-0.1-9,1.7-8.9,5.4c0.1,3.9,5.2,4.7,8.9,5.4
				c5.2,0.9,12.5,1.8,12.2,8.6c-0.2,6.5-6.9,8.2-12.1,8.2c-5.2,0-10.3-2-12.9-5.9l2.1-1.9c2.4,3.5,6.9,5,10.8,5c3.6,0,9-1,9.2-5.6
				c0.1-4.2-4.8-5.1-9.6-5.8c-5.7-1-11.4-2-11.5-7.9c-0.1-5.8,5.7-8.3,11.7-8.2c4.3,0,8.1,1.2,11,3.9L752.4,618z"/>
		</g>
	</g>
</g>
</svg>
